<svg width="361" height="647" viewBox="0 0 361 647" fill="none" xmlns="http://www.w3.org/2000/svg">
<path d="M11.0634 31.6399H360.063V646.64H11.0634V31.6399Z" fill="white"/>
<rect x="11.0634" y="589.293" width="349" height="57.3473" fill="#007BB0"/>
<g opacity="0.4">
<rect x="22.1268" y="67.2347" width="320.839" height="439.992" rx="7" fill="white"/>
<rect x="22.1268" y="67.2347" width="320.839" height="439.992" rx="7" fill="#F6F6F6"/>
</g>
<rect x="192.101" y="526.013" width="145.836" height="48.4486" rx="24.2243" fill="#C058FF"/>
<path d="M27.1556 550.237C27.1556 536.858 38.0012 526.013 51.3799 526.013H155.807C169.186 526.013 180.032 536.858 180.032 550.237V550.237C180.032 563.616 169.186 574.461 155.807 574.461H51.3799C38.0012 574.461 27.1556 563.616 27.1556 550.237V550.237Z" fill="#FF265A"/>
<path d="M68.524 555.833V542.742H73.6887C74.6774 542.742 75.5211 542.919 76.22 543.272C76.9231 543.622 77.4579 544.118 77.8244 544.762C78.1951 545.401 78.3805 546.153 78.3805 547.018C78.3805 547.888 78.193 548.635 77.818 549.262C77.443 549.884 76.8997 550.361 76.188 550.694C75.4806 551.026 74.6241 551.192 73.6184 551.192H70.1603V548.968H73.171C73.6994 548.968 74.1383 548.895 74.4877 548.75C74.8372 548.606 75.0971 548.388 75.2676 548.098C75.4423 547.809 75.5296 547.449 75.5296 547.018C75.5296 546.584 75.4423 546.217 75.2676 545.919C75.0971 545.62 74.835 545.395 74.4813 545.241C74.1319 545.084 73.6909 545.005 73.1582 545.005H71.2917V555.833H68.524ZM75.5936 549.875L78.8471 555.833H75.7917L72.6085 549.875H75.5936ZM84.6015 556.025C83.5916 556.025 82.7223 555.82 81.9936 555.411C81.2692 554.998 80.7109 554.414 80.3189 553.66C79.9268 552.901 79.7308 552.004 79.7308 550.968C79.7308 549.959 79.9268 549.072 80.3189 548.309C80.7109 547.547 81.2628 546.952 81.9744 546.526C82.6903 546.1 83.5298 545.887 84.4929 545.887C85.1406 545.887 85.7436 545.991 86.3018 546.2C86.8643 546.405 87.3544 546.714 87.772 547.127C88.1939 547.54 88.522 548.06 88.7564 548.687C88.9908 549.309 89.1079 550.037 89.1079 550.873V551.62H80.8175V549.933H86.5447C86.5447 549.541 86.4595 549.194 86.289 548.891C86.1186 548.589 85.8821 548.352 85.5795 548.182C85.2812 548.007 84.9339 547.919 84.5376 547.919C84.1243 547.919 83.7578 548.015 83.4382 548.207C83.1229 548.395 82.8757 548.648 82.6967 548.968C82.5177 549.283 82.4261 549.635 82.4219 550.022V551.627C82.4219 552.113 82.5113 552.532 82.6903 552.886C82.8736 553.24 83.1314 553.513 83.4638 553.704C83.7961 553.896 84.1903 553.992 84.6463 553.992C84.9488 553.992 85.2258 553.949 85.4773 553.864C85.7287 553.779 85.9439 553.651 86.1229 553.481C86.3018 553.31 86.4382 553.101 86.5319 552.854L89.0504 553.02C88.9226 553.625 88.6605 554.154 88.2642 554.606C87.8721 555.053 87.365 555.402 86.7429 555.654C86.125 555.901 85.4112 556.025 84.6015 556.025ZM90.8849 546.015H93.6079V556.319C93.6079 557.077 93.4588 557.691 93.1605 558.16C92.8622 558.628 92.4339 558.971 91.8757 559.189C91.3217 559.406 90.6591 559.515 89.8878 559.515C89.794 559.515 89.7045 559.513 89.6193 559.508C89.5298 559.508 89.4361 559.506 89.3381 559.502V557.373C89.4105 557.378 89.4744 557.38 89.5298 557.38C89.5809 557.384 89.6363 557.386 89.696 557.386C90.1349 557.386 90.4417 557.292 90.6165 557.105C90.7954 556.922 90.8849 556.645 90.8849 556.274V546.015ZM92.24 544.749C91.8395 544.749 91.4943 544.615 91.2045 544.346C90.9148 544.074 90.7699 543.748 90.7699 543.368C90.7699 542.993 90.9148 542.672 91.2045 542.403C91.4943 542.13 91.8395 541.994 92.24 541.994C92.6491 541.994 92.9964 542.13 93.2819 542.403C93.5717 542.672 93.7166 542.993 93.7166 543.368C93.7166 543.748 93.5717 544.074 93.2819 544.346C92.9964 544.615 92.6491 544.749 92.24 544.749ZM100.264 556.025C99.2537 556.025 98.3844 555.82 97.6557 555.411C96.9313 554.998 96.373 554.414 95.981 553.66C95.5889 552.901 95.3929 552.004 95.3929 550.968C95.3929 549.959 95.5889 549.072 95.981 548.309C96.373 547.547 96.9249 546.952 97.6365 546.526C98.3524 546.1 99.1919 545.887 100.155 545.887C100.803 545.887 101.406 545.991 101.964 546.2C102.526 546.405 103.016 546.714 103.434 547.127C103.856 547.54 104.184 548.06 104.418 548.687C104.653 549.309 104.77 550.037 104.77 550.873V551.62H96.4796V549.933H102.207C102.207 549.541 102.122 549.194 101.951 548.891C101.781 548.589 101.544 548.352 101.242 548.182C100.943 548.007 100.596 547.919 100.2 547.919C99.7864 547.919 99.4199 548.015 99.1003 548.207C98.785 548.395 98.5378 548.648 98.3588 548.968C98.1798 549.283 98.0882 549.635 98.084 550.022V551.627C98.084 552.113 98.1735 552.532 98.3524 552.886C98.5357 553.24 98.7935 553.513 99.1259 553.704C99.4583 553.896 99.8524 553.992 100.308 553.992C100.611 553.992 100.888 553.949 101.139 553.864C101.391 553.779 101.606 553.651 101.785 553.481C101.964 553.31 102.1 553.101 102.194 552.854L104.713 553.02C104.585 553.625 104.323 554.154 103.926 554.606C103.534 555.053 103.027 555.402 102.405 555.654C101.787 555.901 101.073 556.025 100.264 556.025ZM106.547 555.833V546.015H109.27V555.833H106.547ZM107.915 544.749C107.51 544.749 107.163 544.615 106.873 544.346C106.588 544.074 106.445 543.748 106.445 543.368C106.445 542.993 106.588 542.672 106.873 542.403C107.163 542.13 107.51 541.994 107.915 541.994C108.32 541.994 108.665 542.13 108.95 542.403C109.24 542.672 109.385 542.993 109.385 543.368C109.385 543.748 109.24 544.074 108.95 544.346C108.665 544.615 108.32 544.749 107.915 544.749ZM116.674 546.015V548.06H110.761V546.015H116.674ZM112.103 543.662H114.826V552.816C114.826 553.067 114.865 553.263 114.941 553.404C115.018 553.54 115.125 553.636 115.261 553.691C115.402 553.747 115.564 553.775 115.747 553.775C115.875 553.775 116.002 553.764 116.13 553.743C116.258 553.717 116.356 553.698 116.424 553.685L116.853 555.711C116.716 555.754 116.524 555.803 116.277 555.858C116.03 555.918 115.73 555.954 115.376 555.967C114.72 555.993 114.145 555.905 113.65 555.705C113.16 555.505 112.779 555.194 112.506 554.772C112.233 554.35 112.099 553.817 112.103 553.174V543.662ZM121.247 556.018C120.621 556.018 120.062 555.91 119.572 555.692C119.082 555.471 118.695 555.145 118.409 554.714C118.128 554.28 117.987 553.738 117.987 553.091C117.987 552.545 118.087 552.087 118.288 551.716C118.488 551.346 118.761 551.047 119.106 550.821C119.451 550.596 119.843 550.425 120.282 550.31C120.725 550.195 121.19 550.114 121.675 550.067C122.246 550.008 122.707 549.952 123.056 549.901C123.406 549.846 123.659 549.765 123.817 549.658C123.974 549.552 124.053 549.394 124.053 549.185V549.147C124.053 548.742 123.925 548.429 123.67 548.207C123.418 547.986 123.06 547.875 122.596 547.875C122.106 547.875 121.716 547.983 121.426 548.201C121.136 548.414 120.945 548.682 120.851 549.006L118.332 548.802C118.46 548.205 118.712 547.689 119.087 547.255C119.462 546.816 119.945 546.479 120.538 546.245C121.134 546.006 121.825 545.887 122.609 545.887C123.154 545.887 123.676 545.951 124.175 546.079C124.678 546.206 125.123 546.405 125.511 546.673C125.903 546.941 126.212 547.287 126.437 547.709C126.663 548.126 126.776 548.627 126.776 549.211V555.833H124.194V554.471H124.117C123.96 554.778 123.749 555.049 123.484 555.283C123.22 555.513 122.903 555.694 122.532 555.826C122.161 555.954 121.733 556.018 121.247 556.018ZM122.027 554.139C122.428 554.139 122.781 554.06 123.088 553.902C123.395 553.74 123.636 553.523 123.81 553.25C123.985 552.978 124.072 552.669 124.072 552.324V551.282C123.987 551.337 123.87 551.388 123.721 551.435C123.576 551.478 123.412 551.518 123.229 551.557C123.045 551.591 122.862 551.623 122.679 551.652C122.496 551.678 122.33 551.701 122.18 551.723C121.861 551.77 121.582 551.844 121.343 551.946C121.104 552.049 120.919 552.187 120.787 552.362C120.655 552.532 120.589 552.745 120.589 553.001C120.589 553.372 120.723 553.655 120.991 553.851C121.264 554.043 121.609 554.139 122.027 554.139ZM128.889 555.833V546.015H131.529V547.728H131.631C131.81 547.118 132.11 546.658 132.532 546.347C132.954 546.032 133.44 545.874 133.99 545.874C134.126 545.874 134.273 545.883 134.431 545.9C134.588 545.917 134.727 545.94 134.846 545.97V548.386C134.718 548.348 134.542 548.314 134.316 548.284C134.09 548.254 133.883 548.239 133.696 548.239C133.295 548.239 132.937 548.326 132.622 548.501C132.311 548.672 132.064 548.91 131.88 549.217C131.701 549.524 131.612 549.878 131.612 550.278V555.833H128.889Z" fill="black"/>
<g clip-path="url(#clip0_1_2)">
<path d="M188.844 606.009C188.728 605.892 188.59 605.799 188.437 605.735C188.285 605.672 188.122 605.639 187.957 605.639C187.792 605.639 187.628 605.672 187.476 605.735C187.324 605.799 187.185 605.892 187.069 606.009L175.819 617.259C175.702 617.375 175.609 617.513 175.546 617.666C175.482 617.818 175.45 617.981 175.45 618.146C175.45 618.311 175.482 618.475 175.546 618.627C175.609 618.779 175.702 618.918 175.819 619.034C175.936 619.15 176.075 619.241 176.227 619.304C176.379 619.366 176.542 619.397 176.707 619.396H177.957V628.146C177.957 628.809 178.22 629.445 178.689 629.914C179.158 630.383 179.794 630.646 180.457 630.646H195.457C196.12 630.646 196.756 630.383 197.225 629.914C197.693 629.445 197.957 628.809 197.957 628.146V619.396H199.207C199.538 619.396 199.856 619.265 200.091 619.03C200.325 618.796 200.457 618.478 200.457 618.146C200.458 617.982 200.426 617.819 200.364 617.666C200.302 617.514 200.21 617.376 200.094 617.259L188.844 606.009ZM180.457 628.146V616.159L187.957 608.659L195.457 616.159V628.146H180.457Z" fill="white"/>
</g>
<rect x="11.0634" y="31.6399" width="349" height="18.7862" fill="white"/>
<path d="M338.188 47.2126H350.76V34.8533L338.188 47.2126Z" fill="black" fill-opacity="0.3"/>
<path d="M347.617 37.9431L338.188 47.2126H347.617V37.9431Z" fill="black"/>
<path d="M237.737 556.822H234.771L239.29 543.731H242.857L247.37 556.822H244.404L241.125 546.722H241.023L237.737 556.822ZM237.552 551.676H244.557V553.836H237.552V551.676ZM252.873 557.013C251.868 557.013 251.003 556.8 250.278 556.374C249.558 555.944 249.004 555.347 248.616 554.584C248.233 553.822 248.041 552.944 248.041 551.951C248.041 550.945 248.235 550.063 248.623 549.304C249.015 548.542 249.571 547.947 250.291 547.521C251.011 547.091 251.868 546.876 252.861 546.876C253.717 546.876 254.467 547.031 255.111 547.342C255.754 547.653 256.263 548.09 256.638 548.652C257.013 549.215 257.22 549.876 257.258 550.634H254.689C254.616 550.144 254.425 549.75 254.114 549.452C253.807 549.149 253.404 548.998 252.905 548.998C252.484 548.998 252.115 549.113 251.8 549.343C251.489 549.569 251.246 549.899 251.071 550.334C250.896 550.768 250.809 551.295 250.809 551.912C250.809 552.539 250.894 553.072 251.065 553.51C251.239 553.949 251.484 554.284 251.8 554.514C252.115 554.744 252.484 554.859 252.905 554.859C253.217 554.859 253.496 554.795 253.743 554.667C253.994 554.54 254.201 554.354 254.363 554.111C254.529 553.864 254.638 553.568 254.689 553.223H257.258C257.216 553.973 257.011 554.633 256.645 555.204C256.283 555.771 255.782 556.214 255.143 556.534C254.503 556.853 253.747 557.013 252.873 557.013ZM263.476 557.013C262.466 557.013 261.597 556.809 260.868 556.4C260.144 555.986 259.586 555.402 259.194 554.648C258.802 553.89 258.606 552.993 258.606 551.957C258.606 550.947 258.802 550.061 259.194 549.298C259.586 548.535 260.138 547.941 260.849 547.515C261.565 547.089 262.405 546.876 263.368 546.876C264.015 546.876 264.618 546.98 265.177 547.189C265.739 547.393 266.229 547.702 266.647 548.116C267.069 548.529 267.397 549.049 267.631 549.675C267.865 550.297 267.983 551.026 267.983 551.861V552.609H259.692V550.922H265.419C265.419 550.53 265.334 550.182 265.164 549.88C264.993 549.577 264.757 549.341 264.454 549.17C264.156 548.996 263.809 548.908 263.412 548.908C262.999 548.908 262.633 549.004 262.313 549.196C261.998 549.383 261.75 549.637 261.571 549.956C261.392 550.272 261.301 550.623 261.297 551.011V552.616C261.297 553.101 261.386 553.521 261.565 553.875C261.748 554.228 262.006 554.501 262.339 554.693C262.671 554.885 263.065 554.981 263.521 554.981C263.824 554.981 264.101 554.938 264.352 554.853C264.603 554.768 264.819 554.64 264.998 554.469C265.177 554.299 265.313 554.09 265.407 553.843L267.925 554.009C267.797 554.614 267.535 555.143 267.139 555.594C266.747 556.042 266.24 556.391 265.618 556.643C265 556.89 264.286 557.013 263.476 557.013ZM269.76 556.822V547.003H272.483V556.822H269.76ZM271.128 545.738C270.723 545.738 270.375 545.603 270.086 545.335C269.8 545.062 269.657 544.736 269.657 544.357C269.657 543.982 269.8 543.66 270.086 543.392C270.375 543.119 270.723 542.983 271.128 542.983C271.532 542.983 271.878 543.119 272.163 543.392C272.453 543.66 272.598 543.982 272.598 544.357C272.598 544.736 272.453 545.062 272.163 545.335C271.878 545.603 271.532 545.738 271.128 545.738ZM279.886 547.003V549.049H273.974V547.003H279.886ZM275.316 544.651H278.039V553.804C278.039 554.056 278.077 554.252 278.154 554.393C278.231 554.529 278.337 554.625 278.474 554.68C278.614 554.736 278.776 554.763 278.959 554.763C279.087 554.763 279.215 554.753 279.343 554.731C279.471 554.706 279.569 554.687 279.637 554.674L280.065 556.7C279.929 556.743 279.737 556.792 279.49 556.847C279.243 556.907 278.942 556.943 278.589 556.956C277.932 556.981 277.357 556.894 276.863 556.694C276.373 556.493 275.991 556.182 275.719 555.76C275.446 555.339 275.312 554.806 275.316 554.162V544.651ZM284.46 557.007C283.833 557.007 283.275 556.898 282.785 556.681C282.295 556.459 281.907 556.133 281.622 555.703C281.34 555.268 281.2 554.727 281.2 554.079C281.2 553.534 281.3 553.076 281.5 552.705C281.701 552.334 281.973 552.036 282.318 551.81C282.664 551.584 283.056 551.414 283.495 551.299C283.938 551.184 284.402 551.103 284.888 551.056C285.459 550.996 285.919 550.941 286.269 550.89C286.618 550.834 286.872 550.753 287.029 550.647C287.187 550.54 287.266 550.383 287.266 550.174V550.135C287.266 549.731 287.138 549.417 286.882 549.196C286.631 548.974 286.273 548.863 285.808 548.863C285.318 548.863 284.929 548.972 284.639 549.189C284.349 549.402 284.157 549.671 284.063 549.995L281.545 549.79C281.673 549.194 281.924 548.678 282.299 548.243C282.674 547.804 283.158 547.468 283.75 547.233C284.347 546.995 285.037 546.876 285.821 546.876C286.367 546.876 286.889 546.939 287.387 547.067C287.89 547.195 288.335 547.393 288.723 547.662C289.115 547.93 289.424 548.275 289.65 548.697C289.876 549.115 289.989 549.616 289.989 550.199V556.822H287.407V555.46H287.33C287.172 555.767 286.961 556.037 286.697 556.272C286.433 556.502 286.115 556.683 285.745 556.815C285.374 556.943 284.946 557.007 284.46 557.007ZM285.24 555.128C285.64 555.128 285.994 555.049 286.301 554.891C286.608 554.729 286.848 554.512 287.023 554.239C287.198 553.966 287.285 553.657 287.285 553.312V552.27C287.2 552.326 287.083 552.377 286.933 552.424C286.789 552.466 286.625 552.507 286.441 552.545C286.258 552.579 286.075 552.611 285.892 552.641C285.708 552.667 285.542 552.69 285.393 552.711C285.073 552.758 284.794 552.833 284.556 552.935C284.317 553.037 284.132 553.176 284 553.351C283.867 553.521 283.801 553.734 283.801 553.99C283.801 554.361 283.936 554.644 284.204 554.84C284.477 555.032 284.822 555.128 285.24 555.128ZM292.101 556.822V547.003H294.741V548.716H294.844C295.023 548.107 295.323 547.647 295.745 547.336C296.167 547.02 296.653 546.863 297.202 546.863C297.339 546.863 297.486 546.871 297.643 546.888C297.801 546.905 297.94 546.929 298.059 546.959V549.375C297.931 549.336 297.754 549.302 297.528 549.273C297.302 549.243 297.096 549.228 296.908 549.228C296.508 549.228 296.15 549.315 295.834 549.49C295.523 549.66 295.276 549.899 295.093 550.206C294.914 550.513 294.824 550.866 294.824 551.267V556.822H292.101Z" fill="black"/>
<path fill-rule="evenodd" clip-rule="evenodd" d="M323.856 626.755C323.856 626.464 323.952 626.184 324.124 625.978C324.295 625.772 324.528 625.657 324.77 625.657H343.057C343.299 625.657 343.532 625.772 343.703 625.978C343.875 626.184 343.971 626.464 343.971 626.755C343.971 627.047 343.875 627.326 343.703 627.532C343.532 627.738 343.299 627.854 343.057 627.854H324.77C324.528 627.854 324.295 627.738 324.124 627.532C323.952 627.326 323.856 627.047 323.856 626.755ZM323.856 617.966C323.856 617.675 323.952 617.395 324.124 617.189C324.295 616.983 324.528 616.868 324.77 616.868H343.057C343.299 616.868 343.532 616.983 343.703 617.189C343.875 617.395 343.971 617.675 343.971 617.966C343.971 618.258 343.875 618.537 343.703 618.743C343.532 618.949 343.299 619.065 343.057 619.065H324.77C324.528 619.065 324.295 618.949 324.124 618.743C323.952 618.537 323.856 618.258 323.856 617.966ZM323.856 609.177C323.856 608.886 323.952 608.607 324.124 608.401C324.295 608.195 324.528 608.079 324.77 608.079H343.057C343.299 608.079 343.532 608.195 343.703 608.401C343.875 608.607 343.971 608.886 343.971 609.177C343.971 609.469 343.875 609.748 343.703 609.954C343.532 610.16 343.299 610.276 343.057 610.276H324.77C324.528 610.276 324.295 610.16 324.124 609.954C323.952 609.748 323.856 609.469 323.856 609.177V609.177Z" fill="white"/>
<path d="M298.058 46.7566C297.309 46.7566 296.671 46.5527 296.144 46.1451C295.617 45.7341 295.214 45.1392 294.936 44.3603C294.657 43.5781 294.518 42.6335 294.518 41.5265C294.518 40.4261 294.657 39.4865 294.936 38.7076C295.218 37.9254 295.622 37.3288 296.149 36.9178C296.679 36.5035 297.316 36.2963 298.058 36.2963C298.8 36.2963 299.435 36.5035 299.962 36.9178C300.492 37.3288 300.897 37.9254 301.175 38.7076C301.457 39.4865 301.598 40.4261 301.598 41.5265C301.598 42.6335 301.459 43.5781 301.18 44.3603C300.902 45.1392 300.499 45.7341 299.972 46.1451C299.445 46.5527 298.807 46.7566 298.058 46.7566ZM298.058 45.6628C298.8 45.6628 299.377 45.3049 299.788 44.589C300.199 43.8731 300.405 42.8522 300.405 41.5265C300.405 40.6448 300.31 39.8941 300.121 39.2743C299.936 38.6545 299.667 38.1822 299.316 37.8574C298.968 37.5326 298.548 37.3702 298.058 37.3702C297.322 37.3702 296.747 37.7331 296.333 38.459C295.919 39.1815 295.711 40.204 295.711 41.5265C295.711 42.4081 295.804 43.1571 295.99 43.7736C296.175 44.3901 296.442 44.8591 296.79 45.1806C297.142 45.5021 297.564 45.6628 298.058 45.6628ZM306.728 36.2963C307.146 36.2997 307.564 36.3792 307.981 36.535C308.399 36.6908 308.78 36.9493 309.125 37.3106C309.469 37.6685 309.746 38.1574 309.955 38.7772C310.164 39.397 310.268 40.1742 310.268 41.1088C310.268 42.0137 310.182 42.8174 310.01 43.5201C309.841 44.2194 309.595 44.8094 309.274 45.29C308.956 45.7705 308.568 46.1351 308.111 46.3837C307.656 46.6323 307.143 46.7566 306.569 46.7566C305.999 46.7566 305.49 46.6439 305.043 46.4185C304.599 46.1898 304.234 45.8733 303.949 45.4689C303.668 45.0613 303.487 44.589 303.407 44.052H304.62C304.73 44.5194 304.947 44.9055 305.272 45.2104C305.6 45.512 306.032 45.6628 306.569 45.6628C307.355 45.6628 307.975 45.3198 308.429 44.6337C308.886 43.9476 309.115 42.9782 309.115 41.7253H309.035C308.85 42.0037 308.629 42.244 308.374 42.4462C308.119 42.6484 307.835 42.8042 307.524 42.9135C307.212 43.0229 306.881 43.0776 306.53 43.0776C305.946 43.0776 305.411 42.9334 304.924 42.6451C304.44 42.3534 304.052 41.954 303.76 41.4469C303.472 40.9365 303.328 40.3532 303.328 39.6969C303.328 39.0738 303.467 38.5037 303.745 37.9867C304.027 37.4663 304.422 37.052 304.929 36.7438C305.439 36.4356 306.039 36.2864 306.728 36.2963ZM306.728 37.3901C306.311 37.3901 305.935 37.4945 305.6 37.7033C305.268 37.9088 305.005 38.1872 304.809 38.5385C304.617 38.8865 304.521 39.2727 304.521 39.6969C304.521 40.1212 304.614 40.5073 304.799 40.8553C304.988 41.2 305.245 41.4751 305.57 41.6806C305.898 41.8828 306.271 41.9838 306.689 41.9838C307.004 41.9838 307.297 41.9225 307.569 41.7999C307.84 41.674 308.077 41.5033 308.28 41.2878C308.485 41.0691 308.646 40.8222 308.762 40.5471C308.878 40.2686 308.936 39.9786 308.936 39.677C308.936 39.2793 308.84 38.9064 308.647 38.5584C308.459 38.2104 308.197 37.9287 307.862 37.7133C307.531 37.4978 307.153 37.3901 306.728 37.3901ZM313.098 45.3148C312.853 45.3148 312.643 45.227 312.467 45.0513C312.291 44.8757 312.203 44.6652 312.203 44.4199C312.203 44.1747 312.291 43.9642 312.467 43.7885C312.643 43.6129 312.853 43.525 313.098 43.525C313.344 43.525 313.554 43.6129 313.73 43.7885C313.905 43.9642 313.993 44.1747 313.993 44.4199C313.993 44.5823 313.952 44.7315 313.869 44.8674C313.789 45.0033 313.682 45.1126 313.546 45.1955C313.413 45.275 313.264 45.3148 313.098 45.3148ZM313.098 40.1642C312.853 40.1642 312.643 40.0764 312.467 39.9008C312.291 39.7251 312.203 39.5146 312.203 39.2694C312.203 39.0241 312.291 38.8136 312.467 38.638C312.643 38.4623 312.853 38.3745 313.098 38.3745C313.344 38.3745 313.554 38.4623 313.73 38.638C313.905 38.8136 313.993 39.0241 313.993 39.2694C313.993 39.4318 313.952 39.5809 313.869 39.7168C313.789 39.8527 313.682 39.9621 313.546 40.0449C313.413 40.1245 313.264 40.1642 313.098 40.1642ZM319.261 46.7566C318.677 46.7566 318.152 46.6406 317.685 46.4086C317.217 46.1766 316.843 45.8584 316.561 45.454C316.279 45.0497 316.125 44.589 316.099 44.0719H317.292C317.338 44.5326 317.547 44.9138 317.918 45.2154C318.293 45.5137 318.74 45.6628 319.261 45.6628C319.678 45.6628 320.049 45.5651 320.374 45.3695C320.702 45.174 320.959 44.9055 321.145 44.5641C321.334 44.2194 321.428 43.83 321.428 43.3958C321.428 42.9517 321.33 42.5556 321.135 42.2076C320.943 41.8562 320.677 41.5795 320.339 41.3773C320.001 41.1751 319.615 41.0724 319.181 41.0691C318.869 41.0658 318.55 41.1138 318.221 41.2133C317.893 41.3094 317.623 41.4337 317.411 41.5861L316.258 41.4469L316.874 36.4356H322.164V37.5293H317.908L317.55 40.5321H317.61C317.819 40.3664 318.081 40.2289 318.396 40.1195C318.71 40.0101 319.038 39.9554 319.38 39.9554C320.003 39.9554 320.558 40.1046 321.045 40.4029C321.536 40.6979 321.92 41.1022 322.199 41.6159C322.48 42.1297 322.621 42.7163 322.621 43.3759C322.621 44.0255 322.476 44.6055 322.184 45.116C321.896 45.6231 321.498 46.0241 320.991 46.3191C320.484 46.6107 319.907 46.7566 319.261 46.7566ZM327.917 46.7566C327.168 46.7566 326.53 46.5527 326.003 46.1451C325.476 45.7341 325.074 45.1392 324.795 44.3603C324.517 43.5781 324.378 42.6335 324.378 41.5265C324.378 40.4261 324.517 39.4865 324.795 38.7076C325.077 37.9254 325.481 37.3288 326.008 36.9178C326.539 36.5035 327.175 36.2963 327.917 36.2963C328.66 36.2963 329.294 36.5035 329.821 36.9178C330.352 37.3288 330.756 37.9254 331.035 38.7076C331.316 39.4865 331.457 40.4261 331.457 41.5265C331.457 42.6335 331.318 43.5781 331.04 44.3603C330.761 45.1392 330.358 45.7341 329.831 46.1451C329.304 46.5527 328.666 46.7566 327.917 46.7566ZM327.917 45.6628C328.66 45.6628 329.236 45.3049 329.647 44.589C330.058 43.8731 330.264 42.8522 330.264 41.5265C330.264 40.6448 330.169 39.8941 329.981 39.2743C329.795 38.6545 329.526 38.1822 329.175 37.8574C328.827 37.5326 328.408 37.3702 327.917 37.3702C327.182 37.3702 326.607 37.7331 326.192 38.459C325.778 39.1815 325.571 40.204 325.571 41.5265C325.571 42.4081 325.664 43.1571 325.849 43.7736C326.035 44.3901 326.302 44.8591 326.65 45.1806C327.001 45.5021 327.423 45.6628 327.917 45.6628Z" fill="#5C5C5C"/>
<rect x="34.196" y="79.0997" width="253.452" height="73.1672" rx="27" fill="#E5BBFF"/>
<path d="M56.089 100.851C56.089 101.925 55.8951 102.853 55.5073 103.635C55.1195 104.418 54.5876 105.021 53.9114 105.445C53.2353 105.869 52.4631 106.081 51.5947 106.081C50.7263 106.081 49.9541 105.869 49.2779 105.445C48.6018 105.021 48.0698 104.418 47.682 103.635C47.2943 102.853 47.1004 101.925 47.1004 100.851C47.1004 99.7774 47.2943 98.8493 47.682 98.0671C48.0698 97.2849 48.6018 96.6817 49.2779 96.2575C49.9541 95.8332 50.7263 95.6211 51.5947 95.6211C52.4631 95.6211 53.2353 95.8332 53.9114 96.2575C54.5876 96.6817 55.1195 97.2849 55.5073 98.0671C55.8951 98.8493 56.089 99.7774 56.089 100.851ZM54.8958 100.851C54.8958 99.9696 54.7483 99.2255 54.4533 98.619C54.1617 98.0124 53.7656 97.5534 53.2651 97.2418C52.768 96.9303 52.2112 96.7745 51.5947 96.7745C50.9782 96.7745 50.4197 96.9303 49.9193 97.2418C49.4221 97.5534 49.026 98.0124 48.731 98.619C48.4394 99.2255 48.2935 99.9696 48.2935 100.851C48.2935 101.733 48.4394 102.477 48.731 103.083C49.026 103.69 49.4221 104.149 49.9193 104.461C50.4197 104.772 50.9782 104.928 51.5947 104.928C52.2112 104.928 52.768 104.772 53.2651 104.461C53.7656 104.149 54.1617 103.69 54.4533 103.083C54.7483 102.477 54.8958 101.733 54.8958 100.851ZM65.1423 106.101C64.4065 106.101 63.7718 105.939 63.2381 105.614C62.7078 105.286 62.2985 104.828 62.0102 104.242C61.7251 103.652 61.5826 102.966 61.5826 102.184C61.5826 101.401 61.7251 100.712 62.0102 100.115C62.2985 99.5155 62.6996 99.0482 63.2133 98.7134C63.7303 98.3754 64.3336 98.2063 65.0229 98.2063C65.4207 98.2063 65.8134 98.2726 66.2012 98.4052C66.589 98.5378 66.942 98.7532 67.2602 99.0515C67.5783 99.3465 67.8319 99.7376 68.0208 100.225C68.2097 100.712 68.3042 101.312 68.3042 102.025V102.522H62.4178V101.507H67.111C67.111 101.077 67.0248 100.692 66.8525 100.354C66.6835 100.016 66.4415 99.7492 66.1266 99.5536C65.8151 99.3581 65.4472 99.2603 65.0229 99.2603C64.5556 99.2603 64.1513 99.3763 63.8099 99.6083C63.4718 99.837 63.2116 100.135 63.0293 100.503C62.847 100.871 62.7559 101.266 62.7559 101.686V102.363C62.7559 102.939 62.8553 103.428 63.0542 103.829C63.2564 104.227 63.5364 104.53 63.8944 104.739C64.2524 104.944 64.6683 105.047 65.1423 105.047C65.4505 105.047 65.7289 105.004 65.9775 104.918C66.2294 104.828 66.4465 104.696 66.6288 104.52C66.8111 104.341 66.9519 104.119 67.0514 103.854L68.1849 104.172C68.0656 104.557 67.865 104.895 67.5833 105.186C67.3016 105.475 66.9536 105.7 66.5393 105.863C66.125 106.022 65.6593 106.101 65.1423 106.101ZM71.2623 101.348V105.942H70.089V98.3058H71.2225V99.4989H71.322C71.5009 99.1112 71.7727 98.7996 72.1373 98.5643C72.5019 98.3256 72.9725 98.2063 73.5492 98.2063C74.0663 98.2063 74.5187 98.3124 74.9065 98.5245C75.2943 98.7333 75.5959 99.0515 75.8113 99.4791C76.0267 99.9033 76.1345 100.44 76.1345 101.09V105.942H74.9612V101.169C74.9612 100.569 74.8054 100.102 74.4938 99.7674C74.1823 99.4293 73.7547 99.2603 73.2112 99.2603C72.8366 99.2603 72.5019 99.3415 72.2069 99.5039C71.9152 99.6663 71.6849 99.9033 71.5158 100.215C71.3468 100.526 71.2623 100.904 71.2623 101.348ZM81.5995 98.3058V99.3001H77.6421V98.3058H81.5995ZM78.7955 96.4762H79.9688V103.755C79.9688 104.086 80.0169 104.335 80.113 104.5C80.2124 104.663 80.3383 104.772 80.4908 104.828C80.6466 104.882 80.8107 104.908 80.983 104.908C81.1123 104.908 81.2183 104.901 81.3012 104.888C81.384 104.872 81.4503 104.858 81.5 104.848L81.7387 105.902C81.6591 105.932 81.5481 105.962 81.4056 105.992C81.2631 106.025 81.0824 106.042 80.8637 106.042C80.5322 106.042 80.2074 105.97 79.8892 105.828C79.5744 105.685 79.3125 105.468 79.1037 105.176C78.8982 104.885 78.7955 104.517 78.7955 104.073V96.4762ZM83.3644 105.942V98.3058H84.4979V99.4592H84.5775C84.7167 99.0813 84.9686 98.7747 85.3331 98.5394C85.6977 98.3041 86.1087 98.1864 86.5661 98.1864C86.6523 98.1864 86.76 98.1881 86.8892 98.1914C87.0185 98.1947 87.1163 98.1997 87.1826 98.2063V99.3995C87.1428 99.3896 87.0517 99.3747 86.9091 99.3548C86.7699 99.3316 86.6224 99.32 86.4667 99.32C86.0955 99.32 85.764 99.3979 85.4723 99.5536C85.184 99.7061 84.9553 99.9182 84.7863 100.19C84.6205 100.458 84.5377 100.765 84.5377 101.11V105.942H83.3644ZM91.5427 106.101C90.8069 106.101 90.1722 105.939 89.6385 105.614C89.1082 105.286 88.6989 104.828 88.4106 104.242C88.1255 103.652 87.983 102.966 87.983 102.184C87.983 101.401 88.1255 100.712 88.4106 100.115C88.6989 99.5155 89.0999 99.0482 89.6137 98.7134C90.1307 98.3754 90.7339 98.2063 91.4233 98.2063C91.8211 98.2063 92.2138 98.2726 92.6016 98.4052C92.9894 98.5378 93.3424 98.7532 93.6606 99.0515C93.9787 99.3465 94.2323 99.7376 94.4212 100.225C94.6101 100.712 94.7046 101.312 94.7046 102.025V102.522H88.8182V101.507H93.5114C93.5114 101.077 93.4252 100.692 93.2529 100.354C93.0839 100.016 92.8419 99.7492 92.527 99.5536C92.2155 99.3581 91.8476 99.2603 91.4233 99.2603C90.956 99.2603 90.5517 99.3763 90.2103 99.6083C89.8722 99.837 89.612 100.135 89.4297 100.503C89.2474 100.871 89.1563 101.266 89.1563 101.686V102.363C89.1563 102.939 89.2557 103.428 89.4546 103.829C89.6568 104.227 89.9368 104.53 90.2948 104.739C90.6527 104.944 91.0687 105.047 91.5427 105.047C91.8509 105.047 92.1293 105.004 92.3779 104.918C92.6298 104.828 92.8469 104.696 93.0292 104.52C93.2115 104.341 93.3523 104.119 93.4517 103.854L94.5853 104.172C94.466 104.557 94.2654 104.895 93.9837 105.186C93.702 105.475 93.354 105.7 92.9397 105.863C92.5254 106.022 92.0597 106.101 91.5427 106.101ZM99.5718 108.965C99.005 108.965 98.5178 108.892 98.1101 108.746C97.7025 108.604 97.3627 108.415 97.091 108.179C96.8225 107.947 96.6087 107.699 96.4496 107.434L97.3843 106.777C97.4903 106.917 97.6246 107.076 97.787 107.255C97.9494 107.437 98.1714 107.594 98.4532 107.727C98.7382 107.863 99.1111 107.931 99.5718 107.931C100.188 107.931 100.697 107.782 101.098 107.483C101.499 107.185 101.7 106.718 101.7 106.081V104.53H101.6C101.514 104.669 101.391 104.842 101.232 105.047C101.077 105.249 100.851 105.43 100.556 105.589C100.264 105.745 99.8701 105.823 99.3729 105.823C98.7564 105.823 98.2029 105.677 97.7124 105.385C97.2252 105.094 96.8391 104.669 96.554 104.113C96.2723 103.556 96.1314 102.88 96.1314 102.084C96.1314 101.302 96.269 100.621 96.5441 100.041C96.8192 99.4575 97.202 99.0068 97.6925 98.6886C98.183 98.3671 98.7498 98.2063 99.3928 98.2063C99.89 98.2063 100.284 98.2892 100.576 98.4549C100.871 98.6173 101.096 98.8029 101.252 99.0117C101.411 99.2172 101.534 99.3863 101.62 99.5188H101.739V98.3058H102.873V106.161C102.873 106.817 102.724 107.351 102.425 107.762C102.13 108.176 101.733 108.479 101.232 108.672C100.735 108.867 100.182 108.965 99.5718 108.965ZM99.532 104.769C100.003 104.769 100.4 104.661 100.725 104.446C101.05 104.23 101.297 103.92 101.466 103.516C101.635 103.112 101.72 102.628 101.72 102.064C101.72 101.514 101.637 101.029 101.471 100.608C101.305 100.187 101.06 99.8569 100.735 99.6183C100.41 99.3796 100.009 99.2603 99.532 99.2603C99.0348 99.2603 98.6205 99.3863 98.2891 99.6381C97.961 99.89 97.7141 100.228 97.5483 100.652C97.3859 101.077 97.3047 101.547 97.3047 102.064C97.3047 102.595 97.3876 103.064 97.5533 103.471C97.7223 103.876 97.9709 104.194 98.2991 104.426C98.6305 104.654 99.0415 104.769 99.532 104.769ZM107.268 106.121C106.784 106.121 106.345 106.03 105.95 105.848C105.556 105.662 105.243 105.395 105.011 105.047C104.779 104.696 104.663 104.272 104.663 103.775C104.663 103.337 104.749 102.982 104.921 102.711C105.094 102.435 105.324 102.22 105.612 102.064C105.901 101.909 106.219 101.793 106.567 101.716C106.918 101.637 107.271 101.574 107.626 101.527C108.09 101.468 108.466 101.423 108.754 101.393C109.046 101.36 109.258 101.305 109.391 101.229C109.527 101.153 109.595 101.02 109.595 100.831V100.792C109.595 100.301 109.46 99.9199 109.192 99.6481C108.927 99.3763 108.524 99.2404 107.984 99.2404C107.424 99.2404 106.984 99.3631 106.666 99.6083C106.348 99.8536 106.124 100.115 105.995 100.394L104.881 99.9961C105.08 99.5321 105.345 99.1708 105.677 98.9123C106.012 98.6505 106.376 98.4682 106.771 98.3654C107.168 98.2594 107.559 98.2063 107.944 98.2063C108.189 98.2063 108.471 98.2362 108.789 98.2958C109.111 98.3522 109.42 98.4698 109.719 98.6488C110.02 98.8278 110.271 99.0979 110.47 99.4592C110.668 99.8204 110.768 100.304 110.768 100.911V105.942H109.595V104.908H109.535C109.455 105.074 109.323 105.251 109.137 105.44C108.952 105.629 108.705 105.79 108.396 105.922C108.088 106.055 107.712 106.121 107.268 106.121ZM107.447 105.067C107.911 105.067 108.302 104.976 108.62 104.794C108.942 104.611 109.184 104.376 109.346 104.088C109.512 103.799 109.595 103.496 109.595 103.178V102.104C109.545 102.164 109.435 102.218 109.266 102.268C109.101 102.315 108.908 102.356 108.69 102.392C108.474 102.426 108.264 102.455 108.058 102.482C107.856 102.505 107.692 102.525 107.566 102.542C107.261 102.581 106.976 102.646 106.711 102.735C106.449 102.822 106.237 102.953 106.075 103.128C105.916 103.301 105.836 103.536 105.836 103.834C105.836 104.242 105.987 104.55 106.288 104.759C106.593 104.964 106.979 105.067 107.447 105.067ZM115.793 106.101C115.156 106.101 114.595 105.94 114.107 105.619C113.62 105.294 113.239 104.837 112.964 104.247C112.689 103.654 112.551 102.953 112.551 102.144C112.551 101.342 112.689 100.646 112.964 100.056C113.239 99.4658 113.622 99.0101 114.112 98.6886C114.603 98.3671 115.17 98.2063 115.813 98.2063C116.31 98.2063 116.703 98.2892 116.991 98.4549C117.283 98.6173 117.505 98.8029 117.657 99.0117C117.813 99.2172 117.934 99.3863 118.02 99.5188H118.12V95.7603H119.293V105.942H118.159V104.769H118.02C117.934 104.908 117.811 105.084 117.652 105.296C117.493 105.505 117.266 105.692 116.971 105.858C116.676 106.02 116.283 106.101 115.793 106.101ZM115.952 105.047C116.423 105.047 116.82 104.925 117.145 104.679C117.47 104.431 117.717 104.088 117.886 103.65C118.055 103.209 118.139 102.701 118.139 102.124C118.139 101.554 118.057 101.055 117.891 100.627C117.725 100.197 117.48 99.8619 117.155 99.6232C116.83 99.3813 116.429 99.2603 115.952 99.2603C115.455 99.2603 115.04 99.3879 114.709 99.6431C114.381 99.895 114.134 100.238 113.968 100.672C113.806 101.103 113.725 101.587 113.725 102.124C113.725 102.668 113.808 103.161 113.973 103.605C114.142 104.046 114.391 104.398 114.719 104.659C115.05 104.918 115.461 105.047 115.952 105.047ZM124.707 106.101C124.018 106.101 123.413 105.937 122.892 105.609C122.375 105.281 121.971 104.822 121.679 104.232C121.391 103.642 121.247 102.953 121.247 102.164C121.247 101.368 121.391 100.674 121.679 100.081C121.971 99.4873 122.375 99.0266 122.892 98.6985C123.413 98.3704 124.018 98.2063 124.707 98.2063C125.396 98.2063 126 98.3704 126.517 98.6985C127.037 99.0266 127.441 99.4873 127.73 100.081C128.021 100.674 128.167 101.368 128.167 102.164C128.167 102.953 128.021 103.642 127.73 104.232C127.441 104.822 127.037 105.281 126.517 105.609C126 105.937 125.396 106.101 124.707 106.101ZM124.707 105.047C125.231 105.047 125.661 104.913 126 104.645C126.338 104.376 126.588 104.023 126.75 103.586C126.913 103.148 126.994 102.674 126.994 102.164C126.994 101.653 126.913 101.178 126.75 100.737C126.588 100.296 126.338 99.9398 126 99.668C125.661 99.3962 125.231 99.2603 124.707 99.2603C124.183 99.2603 123.752 99.3962 123.414 99.668C123.076 99.9398 122.826 100.296 122.664 100.737C122.501 101.178 122.42 101.653 122.42 102.164C122.42 102.674 122.501 103.148 122.664 103.586C122.826 104.023 123.076 104.376 123.414 104.645C123.752 104.913 124.183 105.047 124.707 105.047ZM129.958 105.942V98.3058H131.092V99.4592H131.171C131.31 99.0813 131.562 98.7747 131.927 98.5394C132.291 98.3041 132.702 98.1864 133.16 98.1864C133.246 98.1864 133.354 98.1881 133.483 98.1914C133.612 98.1947 133.71 98.1997 133.776 98.2063V99.3995C133.737 99.3896 133.645 99.3747 133.503 99.3548C133.364 99.3316 133.216 99.32 133.06 99.32C132.689 99.32 132.358 99.3979 132.066 99.5536C131.778 99.7061 131.549 99.9182 131.38 100.19C131.214 100.458 131.131 100.765 131.131 101.11V105.942H129.958ZM142.992 95.7603H145.12V102.86C145.12 103.516 144.973 104.086 144.678 104.57C144.386 105.054 143.98 105.427 143.46 105.689C142.939 105.95 142.335 106.081 141.645 106.081C141.032 106.081 140.475 105.974 139.975 105.758C139.477 105.539 139.083 105.208 138.791 104.764C138.5 104.316 138.356 103.755 138.359 103.078H140.502C140.508 103.347 140.563 103.577 140.666 103.77C140.772 103.958 140.916 104.104 141.098 104.207C141.284 104.306 141.503 104.356 141.754 104.356C142.02 104.356 142.243 104.3 142.426 104.187C142.611 104.071 142.752 103.902 142.848 103.68C142.944 103.458 142.992 103.185 142.992 102.86V95.7603ZM150.311 106.091C149.538 106.091 148.87 105.927 148.307 105.599C147.747 105.268 147.314 104.807 147.009 104.217C146.705 103.624 146.552 102.936 146.552 102.154C146.552 101.365 146.705 100.676 147.009 100.086C147.314 99.4923 147.747 99.0316 148.307 98.7035C148.87 98.372 149.538 98.2063 150.311 98.2063C151.083 98.2063 151.749 98.372 152.309 98.7035C152.873 99.0316 153.307 99.4923 153.612 100.086C153.917 100.676 154.069 101.365 154.069 102.154C154.069 102.936 153.917 103.624 153.612 104.217C153.307 104.807 152.873 105.268 152.309 105.599C151.749 105.927 151.083 106.091 150.311 106.091ZM150.321 104.451C150.672 104.451 150.965 104.351 151.201 104.152C151.436 103.95 151.613 103.675 151.732 103.327C151.855 102.979 151.916 102.583 151.916 102.139C151.916 101.695 151.855 101.299 151.732 100.951C151.613 100.603 151.436 100.328 151.201 100.125C150.965 99.9232 150.672 99.8221 150.321 99.8221C149.966 99.8221 149.668 99.9232 149.426 100.125C149.187 100.328 149.006 100.603 148.884 100.951C148.764 101.299 148.705 101.695 148.705 102.139C148.705 102.583 148.764 102.979 148.884 103.327C149.006 103.675 149.187 103.95 149.426 104.152C149.668 104.351 149.966 104.451 150.321 104.451ZM157.624 106.086C157.137 106.086 156.702 106.002 156.321 105.833C155.94 105.66 155.638 105.407 155.416 105.072C155.198 104.734 155.088 104.313 155.088 103.809C155.088 103.385 155.166 103.029 155.322 102.74C155.478 102.452 155.69 102.22 155.958 102.044C156.227 101.869 156.532 101.736 156.873 101.647C157.218 101.557 157.579 101.494 157.957 101.458C158.401 101.411 158.759 101.368 159.031 101.328C159.303 101.285 159.5 101.222 159.622 101.14C159.745 101.057 159.806 100.934 159.806 100.772V100.742C159.806 100.427 159.707 100.183 159.508 100.011C159.312 99.8387 159.034 99.7525 158.673 99.7525C158.292 99.7525 157.988 99.837 157.763 100.006C157.538 100.172 157.388 100.381 157.316 100.632L155.357 100.473C155.456 100.009 155.652 99.6083 155.943 99.2702C156.235 98.9289 156.611 98.667 157.072 98.4847C157.536 98.2991 158.073 98.2063 158.683 98.2063C159.107 98.2063 159.513 98.256 159.901 98.3555C160.292 98.4549 160.638 98.609 160.94 98.8178C161.245 99.0266 161.485 99.2951 161.661 99.6232C161.836 99.948 161.924 100.337 161.924 100.792V105.942H159.916V104.883H159.856C159.733 105.122 159.569 105.332 159.364 105.515C159.158 105.694 158.911 105.834 158.623 105.937C158.335 106.037 158.002 106.086 157.624 106.086ZM158.23 104.625C158.542 104.625 158.817 104.563 159.056 104.441C159.294 104.315 159.482 104.146 159.617 103.934C159.753 103.721 159.821 103.481 159.821 103.213V102.402C159.755 102.445 159.664 102.485 159.548 102.522C159.435 102.555 159.308 102.586 159.165 102.616C159.022 102.643 158.88 102.668 158.737 102.691C158.595 102.711 158.466 102.729 158.35 102.745C158.101 102.782 157.884 102.84 157.698 102.919C157.513 102.999 157.369 103.107 157.266 103.243C157.163 103.375 157.112 103.541 157.112 103.74C157.112 104.028 157.216 104.248 157.425 104.401C157.637 104.55 157.906 104.625 158.23 104.625ZM157.34 97.3661L156.162 97.3512C156.162 96.7182 156.318 96.2326 156.629 95.8945C156.944 95.5565 157.327 95.3858 157.778 95.3825C158.01 95.3825 158.209 95.4206 158.375 95.4968C158.544 95.5697 158.694 95.6559 158.827 95.7553C158.963 95.8548 159.092 95.9426 159.215 96.0188C159.337 96.0917 159.47 96.1282 159.612 96.1282C159.805 96.1249 159.951 96.0536 160.05 95.9144C160.153 95.7719 160.204 95.5863 160.204 95.3576L161.362 95.3924C161.356 96.0188 161.197 96.5027 160.885 96.8441C160.574 97.1822 160.194 97.3529 159.747 97.3562C159.498 97.3562 159.289 97.3197 159.12 97.2468C158.955 97.1706 158.809 97.0844 158.683 96.9883C158.557 96.8889 158.434 96.801 158.315 96.7248C158.196 96.6486 158.061 96.6104 157.912 96.6104C157.74 96.6104 157.601 96.6784 157.495 96.8143C157.392 96.9502 157.34 97.1341 157.34 97.3661ZM167.018 106.091C166.245 106.091 165.578 105.927 165.014 105.599C164.454 105.268 164.021 104.807 163.716 104.217C163.412 103.624 163.259 102.936 163.259 102.154C163.259 101.365 163.412 100.676 163.716 100.086C164.021 99.4923 164.454 99.0316 165.014 98.7035C165.578 98.372 166.245 98.2063 167.018 98.2063C167.79 98.2063 168.456 98.372 169.016 98.7035C169.58 99.0316 170.014 99.4923 170.319 100.086C170.624 100.676 170.776 101.365 170.776 102.154C170.776 102.936 170.624 103.624 170.319 104.217C170.014 104.807 169.58 105.268 169.016 105.599C168.456 105.927 167.79 106.091 167.018 106.091ZM167.028 104.451C167.379 104.451 167.672 104.351 167.908 104.152C168.143 103.95 168.32 103.675 168.439 103.327C168.562 102.979 168.623 102.583 168.623 102.139C168.623 101.695 168.562 101.299 168.439 100.951C168.32 100.603 168.143 100.328 167.908 100.125C167.672 99.9232 167.379 99.8221 167.028 99.8221C166.673 99.8221 166.375 99.9232 166.133 100.125C165.894 100.328 165.713 100.603 165.591 100.951C165.471 101.299 165.412 101.695 165.412 102.139C165.412 102.583 165.471 102.979 165.591 103.327C165.713 103.675 165.894 103.95 166.133 104.152C166.375 104.351 166.673 104.451 167.028 104.451ZM184.417 99.3249H182.239C182.2 99.0432 182.118 98.793 181.996 98.5742C181.873 98.3522 181.716 98.1632 181.523 98.0075C181.331 97.8517 181.109 97.7324 180.857 97.6495C180.609 97.5666 180.339 97.5252 180.047 97.5252C179.52 97.5252 179.061 97.6561 178.67 97.918C178.279 98.1765 177.975 98.5543 177.76 99.0515C177.545 99.5453 177.437 100.145 177.437 100.851C177.437 101.577 177.545 102.187 177.76 102.681C177.979 103.175 178.284 103.547 178.675 103.799C179.066 104.051 179.518 104.177 180.032 104.177C180.32 104.177 180.587 104.139 180.832 104.063C181.081 103.987 181.301 103.876 181.494 103.73C181.686 103.581 181.845 103.4 181.971 103.188C182.1 102.976 182.19 102.734 182.239 102.462L184.417 102.472C184.361 102.939 184.22 103.39 183.994 103.824C183.772 104.255 183.472 104.641 183.095 104.983C182.72 105.321 182.273 105.589 181.752 105.788C181.235 105.984 180.65 106.081 179.997 106.081C179.089 106.081 178.277 105.876 177.561 105.465C176.849 105.054 176.285 104.459 175.871 103.68C175.46 102.901 175.254 101.958 175.254 100.851C175.254 99.7409 175.463 98.7963 175.881 98.0174C176.298 97.2385 176.865 96.6452 177.581 96.2376C178.297 95.8266 179.102 95.6211 179.997 95.6211C180.587 95.6211 181.134 95.704 181.638 95.8697C182.145 96.0354 182.594 96.2774 182.985 96.5955C183.376 96.9104 183.694 97.2965 183.94 97.7539C184.188 98.2113 184.347 98.735 184.417 99.3249ZM188.039 95.7603V105.942H185.921V95.7603H188.039ZM193.215 106.091C192.43 106.091 191.754 105.932 191.187 105.614C190.624 105.293 190.189 104.838 189.884 104.252C189.58 103.662 189.427 102.964 189.427 102.159C189.427 101.373 189.58 100.684 189.884 100.091C190.189 99.4973 190.619 99.0349 191.172 98.7035C191.729 98.372 192.382 98.2063 193.131 98.2063C193.635 98.2063 194.104 98.2875 194.538 98.4499C194.975 98.609 195.357 98.8493 195.681 99.1708C196.009 99.4923 196.265 99.8967 196.447 100.384C196.629 100.868 196.72 101.435 196.72 102.084V102.666H190.272V101.353H194.727C194.727 101.048 194.66 100.778 194.528 100.543C194.395 100.308 194.211 100.124 193.976 99.9911C193.744 99.8552 193.474 99.7873 193.166 99.7873C192.844 99.7873 192.559 99.8619 192.311 100.011C192.065 100.157 191.873 100.354 191.734 100.603C191.595 100.848 191.523 101.121 191.52 101.423V102.671C191.52 103.049 191.59 103.375 191.729 103.65C191.871 103.925 192.072 104.137 192.33 104.287C192.589 104.436 192.896 104.51 193.25 104.51C193.486 104.51 193.701 104.477 193.897 104.411C194.092 104.345 194.259 104.245 194.399 104.113C194.538 103.98 194.644 103.818 194.717 103.625L196.676 103.755C196.576 104.225 196.372 104.636 196.064 104.988C195.759 105.336 195.365 105.607 194.881 105.803C194.4 105.995 193.845 106.091 193.215 106.091ZM198.142 105.942V95.7603H200.26V99.5884H200.325C200.418 99.3829 200.552 99.1741 200.727 98.962C200.906 98.7466 201.138 98.5676 201.424 98.4251C201.712 98.2792 202.07 98.2063 202.497 98.2063C203.054 98.2063 203.568 98.3522 204.039 98.6438C204.509 98.9322 204.885 99.368 205.167 99.9514C205.449 100.531 205.59 101.259 205.59 102.134C205.59 102.986 205.452 103.705 205.177 104.292C204.905 104.875 204.534 105.317 204.063 105.619C203.596 105.917 203.072 106.066 202.492 106.066C202.081 106.066 201.732 105.998 201.443 105.863C201.158 105.727 200.925 105.556 200.742 105.351C200.56 105.142 200.421 104.931 200.325 104.719H200.23V105.942H198.142ZM200.215 102.124C200.215 102.578 200.278 102.974 200.404 103.312C200.53 103.65 200.713 103.914 200.951 104.103C201.19 104.288 201.48 104.381 201.821 104.381C202.166 104.381 202.458 104.287 202.696 104.098C202.935 103.905 203.116 103.64 203.238 103.302C203.364 102.961 203.427 102.568 203.427 102.124C203.427 101.683 203.366 101.295 203.243 100.961C203.12 100.626 202.94 100.364 202.701 100.175C202.463 99.9862 202.169 99.8917 201.821 99.8917C201.477 99.8917 201.185 99.9828 200.946 100.165C200.711 100.347 200.53 100.606 200.404 100.941C200.278 101.275 200.215 101.67 200.215 102.124ZM210.483 106.091C209.697 106.091 209.021 105.932 208.455 105.614C207.891 105.293 207.457 104.838 207.152 104.252C206.847 103.662 206.695 102.964 206.695 102.159C206.695 101.373 206.847 100.684 207.152 100.091C207.457 99.4973 207.886 99.0349 208.44 98.7035C208.996 98.372 209.649 98.2063 210.398 98.2063C210.902 98.2063 211.371 98.2875 211.805 98.4499C212.243 98.609 212.624 98.8493 212.949 99.1708C213.277 99.4923 213.532 99.8967 213.715 100.384C213.897 100.868 213.988 101.435 213.988 102.084V102.666H207.54V101.353H211.994C211.994 101.048 211.928 100.778 211.795 100.543C211.663 100.308 211.479 100.124 211.244 99.9911C211.012 99.8552 210.742 99.7873 210.433 99.7873C210.112 99.7873 209.827 99.8619 209.578 100.011C209.333 100.157 209.141 100.354 209.001 100.603C208.862 100.848 208.791 101.121 208.788 101.423V102.671C208.788 103.049 208.857 103.375 208.996 103.65C209.139 103.925 209.34 104.137 209.598 104.287C209.857 104.436 210.163 104.51 210.518 104.51C210.753 104.51 210.969 104.477 211.164 104.411C211.36 104.345 211.527 104.245 211.666 104.113C211.805 103.98 211.912 103.818 211.984 103.625L213.943 103.755C213.844 104.225 213.64 104.636 213.332 104.988C213.027 105.336 212.632 105.607 212.148 105.803C211.668 105.995 211.113 106.091 210.483 106.091ZM215.37 105.942V98.3058H217.423V99.6381H217.503C217.642 99.1642 217.876 98.8062 218.204 98.5643C218.532 98.319 218.91 98.1964 219.337 98.1964C219.443 98.1964 219.558 98.203 219.68 98.2163C219.803 98.2295 219.911 98.2478 220.004 98.271V100.15C219.904 100.12 219.767 100.094 219.591 100.071C219.415 100.047 219.255 100.036 219.109 100.036C218.797 100.036 218.519 100.104 218.273 100.24C218.032 100.372 217.839 100.558 217.697 100.797C217.558 101.035 217.488 101.31 217.488 101.622V105.942H215.37ZM226.438 95.7603V105.942H225.265V95.7603H226.438ZM229.76 101.348V105.942H228.587V95.7603H229.76V99.4989H229.86C230.039 99.1045 230.307 98.7913 230.665 98.5593C231.026 98.324 231.507 98.2063 232.107 98.2063C232.627 98.2063 233.083 98.3107 233.474 98.5195C233.865 98.725 234.168 99.0416 234.384 99.4691C234.603 99.8934 234.712 100.434 234.712 101.09V105.942H233.539V101.169C233.539 100.563 233.381 100.094 233.066 99.7624C232.755 99.4277 232.322 99.2603 231.769 99.2603C231.384 99.2603 231.04 99.3415 230.735 99.5039C230.433 99.6663 230.195 99.9033 230.019 100.215C229.847 100.526 229.76 100.904 229.76 101.348ZM240.06 106.101C239.324 106.101 238.69 105.939 238.156 105.614C237.626 105.286 237.216 104.828 236.928 104.242C236.643 103.652 236.501 102.966 236.501 102.184C236.501 101.401 236.643 100.712 236.928 100.115C237.216 99.5155 237.618 99.0482 238.131 98.7134C238.648 98.3754 239.252 98.2063 239.941 98.2063C240.339 98.2063 240.731 98.2726 241.119 98.4052C241.507 98.5378 241.86 98.7532 242.178 99.0515C242.496 99.3465 242.75 99.7376 242.939 100.225C243.128 100.712 243.222 101.312 243.222 102.025V102.522H237.336V101.507H242.029C242.029 101.077 241.943 100.692 241.77 100.354C241.601 100.016 241.359 99.7492 241.045 99.5536C240.733 99.3581 240.365 99.2603 239.941 99.2603C239.474 99.2603 239.069 99.3763 238.728 99.6083C238.39 99.837 238.13 100.135 237.947 100.503C237.765 100.871 237.674 101.266 237.674 101.686V102.363C237.674 102.939 237.773 103.428 237.972 103.829C238.174 104.227 238.454 104.53 238.812 104.739C239.17 104.944 239.586 105.047 240.06 105.047C240.368 105.047 240.647 105.004 240.895 104.918C241.147 104.828 241.364 104.696 241.547 104.52C241.729 104.341 241.87 104.119 241.969 103.854L243.103 104.172C242.984 104.557 242.783 104.895 242.501 105.186C242.22 105.475 241.872 105.7 241.457 105.863C241.043 106.022 240.577 106.101 240.06 106.101ZM50.5407 121.101C49.8049 121.101 49.1702 120.939 48.6366 120.614C48.1063 120.286 47.697 119.828 47.4086 119.242C47.1236 118.652 46.981 117.966 46.981 117.184C46.981 116.401 47.1236 115.712 47.4086 115.115C47.697 114.516 48.098 114.048 48.6117 113.713C49.1288 113.375 49.732 113.206 50.4214 113.206C50.8191 113.206 51.2119 113.273 51.5997 113.405C51.9874 113.538 52.3404 113.753 52.6586 114.051C52.9768 114.346 53.2303 114.738 53.4193 115.225C53.6082 115.712 53.7026 116.312 53.7026 117.025V117.522H47.8163V116.507H52.5095C52.5095 116.077 52.4233 115.692 52.2509 115.354C52.0819 115.016 51.8399 114.749 51.5251 114.554C51.2135 114.358 50.8456 114.26 50.4214 114.26C49.9541 114.26 49.5497 114.376 49.2083 114.608C48.8703 114.837 48.6101 115.135 48.4278 115.503C48.2455 115.871 48.1543 116.266 48.1543 116.686V117.363C48.1543 117.939 48.2538 118.428 48.4526 118.829C48.6548 119.227 48.9349 119.53 49.2928 119.739C49.6508 119.944 50.0667 120.047 50.5407 120.047C50.8489 120.047 51.1274 120.004 51.3759 119.918C51.6278 119.828 51.8449 119.696 52.0272 119.52C52.2095 119.341 52.3504 119.119 52.4498 118.854L53.5833 119.172C53.464 119.557 53.2635 119.895 52.9818 120.186C52.7 120.475 52.352 120.7 51.9377 120.863C51.5234 121.022 51.0578 121.101 50.5407 121.101ZM56.6607 116.348V120.942H55.4874V113.306H56.621V114.499H56.7204C56.8994 114.111 57.1712 113.8 57.5357 113.564C57.9003 113.326 58.371 113.206 58.9477 113.206C59.4647 113.206 59.9171 113.312 60.3049 113.525C60.6927 113.733 60.9943 114.051 61.2097 114.479C61.4252 114.903 61.5329 115.44 61.5329 116.09V120.942H60.3596V116.169C60.3596 115.569 60.2038 115.102 59.8923 114.767C59.5807 114.429 59.1532 114.26 58.6096 114.26C58.2351 114.26 57.9003 114.342 57.6053 114.504C57.3137 114.666 57.0833 114.903 56.9143 115.215C56.7453 115.526 56.6607 115.904 56.6607 116.348ZM69.6478 113.306L66.8239 120.942H65.6307L62.8069 113.306H64.0796L66.1875 119.391H66.2671L68.375 113.306H69.6478ZM71.1964 120.942V113.306H72.3697V120.942H71.1964ZM71.793 112.033C71.5643 112.033 71.3671 111.955 71.2014 111.799C71.039 111.644 70.9578 111.456 70.9578 111.238C70.9578 111.019 71.039 110.832 71.2014 110.676C71.3671 110.52 71.5643 110.442 71.793 110.442C72.0217 110.442 72.2173 110.52 72.3797 110.676C72.5454 110.832 72.6282 111.019 72.6282 111.238C72.6282 111.456 72.5454 111.644 72.3797 111.799C72.2173 111.955 72.0217 112.033 71.793 112.033ZM77.621 121.101C76.9316 121.101 76.3267 120.937 75.8063 120.609C75.2893 120.281 74.8849 119.822 74.5933 119.232C74.3049 118.642 74.1607 117.953 74.1607 117.164C74.1607 116.368 74.3049 115.674 74.5933 115.081C74.8849 114.487 75.2893 114.027 75.8063 113.699C76.3267 113.37 76.9316 113.206 77.621 113.206C78.3104 113.206 78.9136 113.37 79.4306 113.699C79.951 114.027 80.3553 114.487 80.6437 115.081C80.9354 115.674 81.0812 116.368 81.0812 117.164C81.0812 117.953 80.9354 118.642 80.6437 119.232C80.3553 119.822 79.951 120.281 79.4306 120.609C78.9136 120.937 78.3104 121.101 77.621 121.101ZM77.621 120.047C78.1446 120.047 78.5755 119.913 78.9136 119.645C79.2516 119.376 79.5019 119.023 79.6643 118.586C79.8267 118.148 79.9079 117.674 79.9079 117.164C79.9079 116.653 79.8267 116.178 79.6643 115.737C79.5019 115.296 79.2516 114.94 78.9136 114.668C78.5755 114.396 78.1446 114.26 77.621 114.26C77.0973 114.26 76.6664 114.396 76.3283 114.668C75.9903 114.94 75.74 115.296 75.5776 115.737C75.4152 116.178 75.334 116.653 75.334 117.164C75.334 117.674 75.4152 118.148 75.5776 118.586C75.74 119.023 75.9903 119.376 76.3283 119.645C76.6664 119.913 77.0973 120.047 77.621 120.047ZM87.6847 117.82V113.306H88.858V120.942H87.6847V119.65H87.6052C87.4262 120.037 87.1478 120.367 86.7699 120.639C86.3921 120.907 85.9148 121.042 85.3381 121.042C84.8608 121.042 84.4366 120.937 84.0654 120.728C83.6942 120.516 83.4025 120.198 83.1904 119.774C82.9783 119.346 82.8722 118.808 82.8722 118.158V113.306H84.0455V118.078C84.0455 118.635 84.2013 119.079 84.5128 119.411C84.8277 119.742 85.2287 119.908 85.716 119.908C86.0076 119.908 86.3043 119.833 86.6059 119.684C86.9108 119.535 87.166 119.306 87.3715 118.998C87.5803 118.69 87.6847 118.297 87.6847 117.82ZM99.757 117.82V113.306H100.93V120.942H99.757V119.65H99.6774C99.4984 120.037 99.22 120.367 98.8422 120.639C98.4644 120.907 97.9871 121.042 97.4104 121.042C96.9331 121.042 96.5089 120.937 96.1377 120.728C95.7664 120.516 95.4748 120.198 95.2627 119.774C95.0505 119.346 94.9445 118.808 94.9445 118.158V113.306H96.1178V118.078C96.1178 118.635 96.2735 119.079 96.5851 119.411C96.9 119.742 97.301 119.908 97.7882 119.908C98.0799 119.908 98.3765 119.833 98.6781 119.684C98.9831 119.535 99.2383 119.306 99.4438 118.998C99.6526 118.69 99.757 118.297 99.757 117.82ZM103.079 120.942V113.306H104.213V114.499H104.312C104.471 114.091 104.728 113.775 105.083 113.549C105.437 113.321 105.863 113.206 106.36 113.206C106.864 113.206 107.284 113.321 107.618 113.549C107.956 113.775 108.22 114.091 108.409 114.499H108.488C108.684 114.105 108.977 113.791 109.368 113.559C109.759 113.324 110.228 113.206 110.775 113.206C111.458 113.206 112.016 113.42 112.451 113.848C112.885 114.272 113.102 114.933 113.102 115.831V120.942H111.929V115.831C111.929 115.268 111.775 114.865 111.466 114.623C111.158 114.381 110.795 114.26 110.378 114.26C109.841 114.26 109.425 114.423 109.13 114.748C108.835 115.069 108.687 115.477 108.687 115.971V120.942H107.494V115.712C107.494 115.278 107.353 114.928 107.071 114.663C106.79 114.395 106.427 114.26 105.983 114.26C105.678 114.26 105.393 114.342 105.128 114.504C104.866 114.666 104.654 114.892 104.491 115.18C104.332 115.465 104.253 115.795 104.253 116.169V120.942H103.079ZM117.494 121.121C117.01 121.121 116.571 121.03 116.177 120.848C115.782 120.662 115.469 120.395 115.237 120.047C115.005 119.696 114.889 119.272 114.889 118.775C114.889 118.337 114.975 117.982 115.148 117.711C115.32 117.435 115.55 117.22 115.839 117.064C116.127 116.909 116.445 116.793 116.793 116.716C117.145 116.637 117.498 116.574 117.852 116.527C118.316 116.468 118.693 116.423 118.981 116.393C119.273 116.36 119.485 116.305 119.617 116.229C119.753 116.153 119.821 116.02 119.821 115.831V115.792C119.821 115.301 119.687 114.92 119.418 114.648C119.153 114.376 118.751 114.24 118.21 114.24C117.65 114.24 117.211 114.363 116.893 114.608C116.575 114.854 116.351 115.115 116.222 115.394L115.108 114.996C115.307 114.532 115.572 114.171 115.903 113.912C116.238 113.65 116.603 113.468 116.997 113.365C117.395 113.259 117.786 113.206 118.17 113.206C118.416 113.206 118.697 113.236 119.016 113.296C119.337 113.352 119.647 113.47 119.945 113.649C120.247 113.828 120.497 114.098 120.696 114.459C120.895 114.82 120.994 115.304 120.994 115.911V120.942H119.821V119.908H119.761C119.682 120.074 119.549 120.251 119.364 120.44C119.178 120.629 118.931 120.79 118.623 120.922C118.315 121.055 117.938 121.121 117.494 121.121ZM117.673 120.067C118.137 120.067 118.528 119.976 118.847 119.794C119.168 119.611 119.41 119.376 119.572 119.088C119.738 118.799 119.821 118.496 119.821 118.178V117.104C119.771 117.164 119.662 117.218 119.493 117.268C119.327 117.315 119.135 117.356 118.916 117.392C118.701 117.426 118.49 117.455 118.285 117.482C118.083 117.505 117.919 117.525 117.793 117.542C117.488 117.581 117.203 117.646 116.938 117.735C116.676 117.822 116.464 117.953 116.301 118.128C116.142 118.301 116.063 118.536 116.063 118.834C116.063 119.242 116.213 119.55 116.515 119.759C116.82 119.964 117.206 120.067 117.673 120.067ZM127.073 123.806V113.306H128.207V114.519H128.346C128.432 114.386 128.552 114.217 128.704 114.012C128.86 113.803 129.082 113.617 129.37 113.455C129.662 113.289 130.056 113.206 130.553 113.206C131.196 113.206 131.763 113.367 132.254 113.689C132.744 114.01 133.127 114.466 133.402 115.056C133.677 115.646 133.815 116.342 133.815 117.144C133.815 117.953 133.677 118.654 133.402 119.247C133.127 119.837 132.746 120.294 132.259 120.619C131.772 120.94 131.21 121.101 130.573 121.101C130.083 121.101 129.69 121.02 129.395 120.858C129.1 120.692 128.873 120.505 128.714 120.296C128.555 120.084 128.432 119.908 128.346 119.769H128.247V123.806H127.073ZM128.227 117.124C128.227 117.701 128.311 118.209 128.48 118.65C128.649 119.088 128.896 119.431 129.221 119.679C129.546 119.925 129.944 120.047 130.414 120.047C130.905 120.047 131.314 119.918 131.642 119.659C131.974 119.398 132.222 119.046 132.388 118.605C132.557 118.161 132.642 117.668 132.642 117.124C132.642 116.587 132.559 116.103 132.393 115.672C132.231 115.238 131.984 114.895 131.652 114.643C131.324 114.388 130.911 114.26 130.414 114.26C129.937 114.26 129.536 114.381 129.211 114.623C128.886 114.862 128.641 115.197 128.475 115.627C128.31 116.055 128.227 116.554 128.227 117.124ZM135.605 120.942V113.306H136.738V114.459H136.818C136.957 114.081 137.209 113.775 137.573 113.539C137.938 113.304 138.349 113.186 138.806 113.186C138.893 113.186 139 113.188 139.129 113.191C139.259 113.195 139.357 113.2 139.423 113.206V114.4C139.383 114.39 139.292 114.375 139.149 114.355C139.01 114.332 138.863 114.32 138.707 114.32C138.336 114.32 138.004 114.398 137.713 114.554C137.424 114.706 137.196 114.918 137.027 115.19C136.861 115.458 136.778 115.765 136.778 116.11V120.942H135.605ZM143.683 121.101C142.994 121.101 142.389 120.937 141.869 120.609C141.352 120.281 140.947 119.822 140.656 119.232C140.367 118.642 140.223 117.953 140.223 117.164C140.223 116.368 140.367 115.674 140.656 115.081C140.947 114.487 141.352 114.027 141.869 113.699C142.389 113.37 142.994 113.206 143.683 113.206C144.373 113.206 144.976 113.37 145.493 113.699C146.013 114.027 146.418 114.487 146.706 115.081C146.998 115.674 147.144 116.368 147.144 117.164C147.144 117.953 146.998 118.642 146.706 119.232C146.418 119.822 146.013 120.281 145.493 120.609C144.976 120.937 144.373 121.101 143.683 121.101ZM143.683 120.047C144.207 120.047 144.638 119.913 144.976 119.645C145.314 119.376 145.564 119.023 145.727 118.586C145.889 118.148 145.97 117.674 145.97 117.164C145.97 116.653 145.889 116.178 145.727 115.737C145.564 115.296 145.314 114.94 144.976 114.668C144.638 114.396 144.207 114.26 143.683 114.26C143.16 114.26 142.729 114.396 142.391 114.668C142.053 114.94 141.803 115.296 141.64 115.737C141.478 116.178 141.397 116.653 141.397 117.164C141.397 117.674 141.478 118.148 141.64 118.586C141.803 119.023 142.053 119.376 142.391 119.645C142.729 119.913 143.16 120.047 143.683 120.047ZM148.935 123.806V113.306H150.068V114.519H150.207C150.294 114.386 150.413 114.217 150.565 114.012C150.721 113.803 150.943 113.617 151.232 113.455C151.523 113.289 151.918 113.206 152.415 113.206C153.058 113.206 153.625 113.367 154.115 113.689C154.606 114.01 154.988 114.466 155.264 115.056C155.539 115.646 155.676 116.342 155.676 117.144C155.676 117.953 155.539 118.654 155.264 119.247C154.988 119.837 154.607 120.294 154.12 120.619C153.633 120.94 153.071 121.101 152.435 121.101C151.944 121.101 151.551 121.02 151.256 120.858C150.961 120.692 150.734 120.505 150.575 120.296C150.416 120.084 150.294 119.908 150.207 119.769H150.108V123.806H148.935ZM150.088 117.124C150.088 117.701 150.173 118.209 150.342 118.65C150.511 119.088 150.758 119.431 151.082 119.679C151.407 119.925 151.805 120.047 152.276 120.047C152.766 120.047 153.175 119.918 153.504 119.659C153.835 119.398 154.084 119.046 154.249 118.605C154.418 118.161 154.503 117.668 154.503 117.124C154.503 116.587 154.42 116.103 154.254 115.672C154.092 115.238 153.845 114.895 153.514 114.643C153.185 114.388 152.773 114.26 152.276 114.26C151.798 114.26 151.397 114.381 151.072 114.623C150.748 114.862 150.502 115.197 150.337 115.627C150.171 116.055 150.088 116.554 150.088 117.124ZM160.568 121.101C159.879 121.101 159.274 120.937 158.754 120.609C158.237 120.281 157.832 119.822 157.541 119.232C157.252 118.642 157.108 117.953 157.108 117.164C157.108 116.368 157.252 115.674 157.541 115.081C157.832 114.487 158.237 114.027 158.754 113.699C159.274 113.37 159.879 113.206 160.568 113.206C161.258 113.206 161.861 113.37 162.378 113.699C162.898 114.027 163.303 114.487 163.591 115.081C163.883 115.674 164.028 116.368 164.028 117.164C164.028 117.953 163.883 118.642 163.591 119.232C163.303 119.822 162.898 120.281 162.378 120.609C161.861 120.937 161.258 121.101 160.568 121.101ZM160.568 120.047C161.092 120.047 161.523 119.913 161.861 119.645C162.199 119.376 162.449 119.023 162.612 118.586C162.774 118.148 162.855 117.674 162.855 117.164C162.855 116.653 162.774 116.178 162.612 115.737C162.449 115.296 162.199 114.94 161.861 114.668C161.523 114.396 161.092 114.26 160.568 114.26C160.045 114.26 159.614 114.396 159.276 114.668C158.938 114.94 158.687 115.296 158.525 115.737C158.362 116.178 158.281 116.653 158.281 117.164C158.281 117.674 158.362 118.148 158.525 118.586C158.687 119.023 158.938 119.376 159.276 119.645C159.614 119.913 160.045 120.047 160.568 120.047ZM171.229 115.016L170.175 115.314C170.108 115.139 170.011 114.968 169.881 114.802C169.755 114.633 169.583 114.494 169.364 114.385C169.145 114.275 168.865 114.221 168.524 114.221C168.057 114.221 167.667 114.328 167.356 114.544C167.047 114.756 166.893 115.026 166.893 115.354C166.893 115.646 166.999 115.876 167.212 116.045C167.424 116.214 167.755 116.355 168.206 116.468L169.339 116.746C170.022 116.912 170.531 117.165 170.866 117.507C171.2 117.845 171.368 118.281 171.368 118.814C171.368 119.252 171.242 119.643 170.99 119.988C170.741 120.332 170.393 120.604 169.946 120.803C169.498 121.002 168.978 121.101 168.385 121.101C167.606 121.101 166.961 120.932 166.451 120.594C165.94 120.256 165.617 119.762 165.481 119.113L166.595 118.834C166.701 119.245 166.902 119.553 167.197 119.759C167.495 119.964 167.884 120.067 168.365 120.067C168.912 120.067 169.346 119.951 169.667 119.719C169.992 119.484 170.155 119.202 170.155 118.874C170.155 118.609 170.062 118.387 169.876 118.208C169.691 118.025 169.406 117.89 169.021 117.8L167.748 117.502C167.049 117.336 166.535 117.079 166.207 116.731C165.882 116.38 165.72 115.941 165.72 115.414C165.72 114.983 165.841 114.602 166.083 114.27C166.328 113.939 166.661 113.679 167.082 113.49C167.506 113.301 167.987 113.206 168.524 113.206C169.28 113.206 169.873 113.372 170.304 113.703C170.738 114.035 171.046 114.472 171.229 115.016ZM176.455 113.306V114.3H172.498V113.306H176.455ZM173.651 111.476H174.824V118.755C174.824 119.086 174.872 119.335 174.968 119.5C175.068 119.663 175.194 119.772 175.346 119.828C175.502 119.882 175.666 119.908 175.838 119.908C175.968 119.908 176.074 119.901 176.157 119.888C176.24 119.872 176.306 119.858 176.356 119.848L176.594 120.902C176.515 120.932 176.404 120.962 176.261 120.992C176.119 121.025 175.938 121.042 175.719 121.042C175.388 121.042 175.063 120.97 174.745 120.828C174.43 120.685 174.168 120.468 173.959 120.176C173.754 119.885 173.651 119.517 173.651 119.073V111.476ZM180.467 121.121C179.983 121.121 179.544 121.03 179.15 120.848C178.755 120.662 178.442 120.395 178.21 120.047C177.978 119.696 177.862 119.272 177.862 118.775C177.862 118.337 177.948 117.982 178.12 117.711C178.293 117.435 178.523 117.22 178.811 117.064C179.1 116.909 179.418 116.793 179.766 116.716C180.117 116.637 180.47 116.574 180.825 116.527C181.289 116.468 181.665 116.423 181.954 116.393C182.245 116.36 182.457 116.305 182.59 116.229C182.726 116.153 182.794 116.02 182.794 115.831V115.792C182.794 115.301 182.659 114.92 182.391 114.648C182.126 114.376 181.723 114.24 181.183 114.24C180.623 114.24 180.184 114.363 179.865 114.608C179.547 114.854 179.324 115.115 179.194 115.394L178.081 114.996C178.28 114.532 178.545 114.171 178.876 113.912C179.211 113.65 179.575 113.468 179.97 113.365C180.368 113.259 180.759 113.206 181.143 113.206C181.388 113.206 181.67 113.236 181.988 113.296C182.31 113.352 182.62 113.47 182.918 113.649C183.22 113.828 183.47 114.098 183.669 114.459C183.868 114.82 183.967 115.304 183.967 115.911V120.942H182.794V119.908H182.734C182.655 120.074 182.522 120.251 182.336 120.44C182.151 120.629 181.904 120.79 181.596 120.922C181.287 121.055 180.911 121.121 180.467 121.121ZM180.646 120.067C181.11 120.067 181.501 119.976 181.819 119.794C182.141 119.611 182.383 119.376 182.545 119.088C182.711 118.799 182.794 118.496 182.794 118.178V117.104C182.744 117.164 182.635 117.218 182.466 117.268C182.3 117.315 182.108 117.356 181.889 117.392C181.673 117.426 181.463 117.455 181.258 117.482C181.055 117.505 180.891 117.525 180.765 117.542C180.46 117.581 180.175 117.646 179.91 117.735C179.648 117.822 179.436 117.953 179.274 118.128C179.115 118.301 179.035 118.536 179.035 118.834C179.035 119.242 179.186 119.55 179.488 119.759C179.793 119.964 180.179 120.067 180.646 120.067ZM192.93 121.101C192.293 121.101 191.731 120.94 191.244 120.619C190.757 120.294 190.376 119.837 190.101 119.247C189.826 118.654 189.688 117.953 189.688 117.144C189.688 116.342 189.826 115.646 190.101 115.056C190.376 114.466 190.759 114.01 191.249 113.689C191.74 113.367 192.306 113.206 192.949 113.206C193.447 113.206 193.839 113.289 194.128 113.455C194.419 113.617 194.641 113.803 194.794 114.012C194.95 114.217 195.071 114.386 195.157 114.519H195.256V110.76H196.43V120.942H195.296V119.769H195.157C195.071 119.908 194.948 120.084 194.789 120.296C194.63 120.505 194.403 120.692 194.108 120.858C193.813 121.02 193.42 121.101 192.93 121.101ZM193.089 120.047C193.559 120.047 193.957 119.925 194.282 119.679C194.607 119.431 194.854 119.088 195.023 118.65C195.192 118.209 195.276 117.701 195.276 117.124C195.276 116.554 195.193 116.055 195.028 115.627C194.862 115.197 194.617 114.862 194.292 114.623C193.967 114.381 193.566 114.26 193.089 114.26C192.591 114.26 192.177 114.388 191.846 114.643C191.518 114.895 191.271 115.238 191.105 115.672C190.943 116.103 190.861 116.587 190.861 117.124C190.861 117.668 190.944 118.161 191.11 118.605C191.279 119.046 191.528 119.398 191.856 119.659C192.187 119.918 192.598 120.047 193.089 120.047ZM201.943 121.101C201.207 121.101 200.573 120.939 200.039 120.614C199.509 120.286 199.099 119.828 198.811 119.242C198.526 118.652 198.383 117.966 198.383 117.184C198.383 116.401 198.526 115.712 198.811 115.115C199.099 114.516 199.5 114.048 200.014 113.713C200.531 113.375 201.134 113.206 201.824 113.206C202.221 113.206 202.614 113.273 203.002 113.405C203.39 113.538 203.743 113.753 204.061 114.051C204.379 114.346 204.633 114.738 204.822 115.225C205.011 115.712 205.105 116.312 205.105 117.025V117.522H199.219V116.507H203.912C203.912 116.077 203.826 115.692 203.653 115.354C203.484 115.016 203.242 114.749 202.927 114.554C202.616 114.358 202.248 114.26 201.824 114.26C201.356 114.26 200.952 114.376 200.611 114.608C200.273 114.837 200.012 115.135 199.83 115.503C199.648 115.871 199.557 116.266 199.557 116.686V117.363C199.557 117.939 199.656 118.428 199.855 118.829C200.057 119.227 200.337 119.53 200.695 119.739C201.053 119.944 201.469 120.047 201.943 120.047C202.251 120.047 202.53 120.004 202.778 119.918C203.03 119.828 203.247 119.696 203.43 119.52C203.612 119.341 203.753 119.119 203.852 118.854L204.986 119.172C204.866 119.557 204.666 119.895 204.384 120.186C204.102 120.475 203.754 120.7 203.34 120.863C202.926 121.022 202.46 121.101 201.943 121.101ZM210.638 120.942V110.76H214.655C215.424 110.76 216.081 110.898 216.624 111.173C217.171 111.445 217.587 111.831 217.872 112.331C218.16 112.828 218.305 113.413 218.305 114.086C218.305 114.762 218.159 115.344 217.867 115.831C217.575 116.315 217.153 116.686 216.599 116.945C216.049 117.203 215.383 117.333 214.601 117.333H211.911V115.603H214.253C214.664 115.603 215.005 115.546 215.277 115.434C215.549 115.321 215.751 115.152 215.883 114.926C216.019 114.701 216.087 114.421 216.087 114.086C216.087 113.748 216.019 113.463 215.883 113.231C215.751 112.999 215.547 112.824 215.272 112.704C215 112.582 214.657 112.52 214.243 112.52H212.791V120.942H210.638ZM216.137 116.309L218.667 120.942H216.291L213.815 116.309H216.137ZM223.187 122.215V109.488H224.002V122.215H223.187ZM225.349 113.689C225.31 113.288 225.139 112.976 224.837 112.754C224.536 112.532 224.126 112.421 223.609 112.421C223.258 112.421 222.961 112.471 222.719 112.57C222.477 112.666 222.292 112.8 222.163 112.973C222.037 113.145 221.974 113.341 221.974 113.559C221.967 113.742 222.005 113.901 222.088 114.037C222.174 114.172 222.292 114.29 222.441 114.39C222.59 114.486 222.762 114.57 222.958 114.643C223.154 114.713 223.362 114.772 223.584 114.822L224.499 115.041C224.943 115.14 225.351 115.273 225.722 115.439C226.093 115.604 226.415 115.808 226.687 116.05C226.958 116.292 227.169 116.577 227.318 116.905C227.471 117.233 227.548 117.61 227.552 118.034C227.548 118.657 227.389 119.197 227.074 119.654C226.763 120.109 226.312 120.462 225.722 120.713C225.136 120.962 224.428 121.086 223.599 121.086C222.777 121.086 222.061 120.96 221.452 120.708C220.845 120.457 220.371 120.084 220.03 119.59C219.692 119.093 219.514 118.478 219.498 117.745H221.581C221.604 118.087 221.702 118.372 221.874 118.601C222.05 118.826 222.283 118.997 222.575 119.113C222.87 119.225 223.203 119.282 223.574 119.282C223.939 119.282 224.256 119.229 224.524 119.123C224.796 119.016 225.006 118.869 225.155 118.68C225.305 118.491 225.379 118.274 225.379 118.029C225.379 117.8 225.311 117.608 225.175 117.452C225.043 117.296 224.847 117.164 224.589 117.054C224.333 116.945 224.02 116.846 223.649 116.756L222.54 116.478C221.682 116.269 221.004 115.942 220.507 115.498C220.01 115.054 219.763 114.456 219.766 113.703C219.763 113.087 219.927 112.548 220.258 112.088C220.593 111.627 221.052 111.267 221.636 111.009C222.219 110.75 222.882 110.621 223.624 110.621C224.38 110.621 225.039 110.75 225.603 111.009C226.17 111.267 226.61 111.627 226.925 112.088C227.24 112.548 227.403 113.082 227.413 113.689H225.349ZM232.18 120.942V119.391L235.805 116.035C236.113 115.737 236.371 115.468 236.58 115.23C236.792 114.991 236.953 114.757 237.062 114.529C237.172 114.297 237.226 114.047 237.226 113.778C237.226 113.48 237.158 113.223 237.023 113.007C236.887 112.789 236.701 112.621 236.466 112.505C236.23 112.386 235.964 112.326 235.665 112.326C235.354 112.326 235.082 112.389 234.85 112.515C234.618 112.641 234.439 112.822 234.313 113.057C234.187 113.293 234.124 113.573 234.124 113.897H232.081C232.081 113.231 232.232 112.653 232.533 112.162C232.835 111.672 233.257 111.292 233.801 111.024C234.345 110.755 234.971 110.621 235.68 110.621C236.409 110.621 237.044 110.75 237.584 111.009C238.128 111.264 238.551 111.619 238.852 112.073C239.154 112.527 239.305 113.047 239.305 113.634C239.305 114.018 239.228 114.398 239.076 114.772C238.927 115.147 238.66 115.563 238.275 116.02C237.891 116.474 237.349 117.02 236.65 117.656L235.163 119.113V119.182H239.439V120.942H232.18ZM244.717 121.081C244.015 121.081 243.388 120.952 242.838 120.694C242.291 120.435 241.857 120.079 241.536 119.625C241.214 119.171 241.047 118.65 241.033 118.064H243.121C243.145 118.458 243.31 118.778 243.619 119.023C243.927 119.268 244.293 119.391 244.717 119.391C245.055 119.391 245.354 119.316 245.612 119.167C245.874 119.015 246.078 118.804 246.224 118.536C246.373 118.264 246.447 117.953 246.447 117.601C246.447 117.243 246.371 116.928 246.219 116.657C246.07 116.385 245.862 116.173 245.597 116.02C245.332 115.868 245.029 115.79 244.688 115.787C244.389 115.787 244.099 115.848 243.818 115.971C243.539 116.093 243.322 116.261 243.166 116.473L241.252 116.13L241.734 110.76H247.959V112.52H243.509L243.246 115.071H243.305C243.484 114.819 243.755 114.61 244.116 114.444C244.477 114.279 244.881 114.196 245.329 114.196C245.942 114.196 246.489 114.34 246.97 114.628C247.45 114.917 247.83 115.313 248.108 115.816C248.386 116.317 248.524 116.894 248.521 117.547C248.524 118.233 248.365 118.842 248.043 119.376C247.725 119.906 247.279 120.324 246.706 120.629C246.136 120.931 245.473 121.081 244.717 121.081ZM252.016 119.55L251.961 120.097C251.918 120.534 251.835 120.97 251.712 121.404C251.593 121.842 251.467 122.238 251.335 122.593C251.205 122.947 251.101 123.226 251.021 123.428H249.649C249.699 123.232 249.767 122.959 249.853 122.608C249.939 122.26 250.02 121.868 250.097 121.434C250.173 121 250.221 120.558 250.241 120.107L250.266 119.55H252.016ZM257.514 121.166C256.659 121.163 255.923 120.952 255.307 120.534C254.694 120.117 254.221 119.512 253.89 118.72C253.562 117.928 253.399 116.975 253.403 115.861C253.403 114.751 253.567 113.805 253.895 113.022C254.226 112.24 254.699 111.645 255.312 111.238C255.928 110.827 256.662 110.621 257.514 110.621C258.366 110.621 259.099 110.827 259.712 111.238C260.328 111.649 260.802 112.245 261.134 113.027C261.465 113.806 261.629 114.751 261.626 115.861C261.626 116.978 261.46 117.933 261.129 118.725C260.8 119.517 260.33 120.122 259.717 120.539C259.104 120.957 258.369 121.166 257.514 121.166ZM257.514 119.381C258.098 119.381 258.563 119.088 258.911 118.501C259.259 117.914 259.432 117.034 259.428 115.861C259.428 115.089 259.349 114.446 259.19 113.932C259.034 113.418 258.812 113.032 258.523 112.774C258.238 112.515 257.902 112.386 257.514 112.386C256.934 112.386 256.47 112.676 256.122 113.256C255.774 113.836 255.599 114.704 255.595 115.861C255.595 116.643 255.673 117.296 255.829 117.82C255.988 118.34 256.212 118.731 256.5 118.993C256.788 119.252 257.126 119.381 257.514 119.381ZM267.153 121.166C266.298 121.163 265.562 120.952 264.946 120.534C264.332 120.117 263.86 119.512 263.529 118.72C263.201 117.928 263.038 116.975 263.041 115.861C263.041 114.751 263.205 113.805 263.534 113.022C263.865 112.24 264.337 111.645 264.951 111.238C265.567 110.827 266.301 110.621 267.153 110.621C268.005 110.621 268.737 110.827 269.35 111.238C269.967 111.649 270.441 112.245 270.772 113.027C271.104 113.806 271.268 114.751 271.264 115.861C271.264 116.978 271.099 117.933 270.767 118.725C270.439 119.517 269.968 120.122 269.355 120.539C268.742 120.957 268.008 121.166 267.153 121.166ZM267.153 119.381C267.736 119.381 268.202 119.088 268.55 118.501C268.898 117.914 269.07 117.034 269.067 115.861C269.067 115.089 268.987 114.446 268.828 113.932C268.673 113.418 268.451 113.032 268.162 112.774C267.877 112.515 267.541 112.386 267.153 112.386C266.573 112.386 266.109 112.676 265.761 113.256C265.413 113.836 265.237 114.704 265.234 115.861C265.234 116.643 265.312 117.296 265.468 117.82C265.627 118.34 265.85 118.731 266.139 118.993C266.427 119.252 266.765 119.381 267.153 119.381ZM47.339 138.806V128.306H48.4725V129.519H48.6117C48.6979 129.386 48.8172 129.217 48.9697 129.012C49.1255 128.803 49.3475 128.617 49.6359 128.455C49.9275 128.289 50.322 128.206 50.8191 128.206C51.4621 128.206 52.0289 128.367 52.5194 128.689C53.0099 129.01 53.3927 129.466 53.6678 130.056C53.9429 130.646 54.0805 131.342 54.0805 132.144C54.0805 132.953 53.9429 133.654 53.6678 134.247C53.3927 134.837 53.0116 135.294 52.5244 135.619C52.0372 135.94 51.4754 136.101 50.839 136.101C50.3485 136.101 49.9557 136.02 49.6607 135.858C49.3658 135.692 49.1387 135.505 48.9796 135.296C48.8205 135.084 48.6979 134.908 48.6117 134.769H48.5123V138.806H47.339ZM48.4924 132.124C48.4924 132.701 48.5769 133.209 48.746 133.65C48.915 134.088 49.1619 134.431 49.4867 134.679C49.8115 134.925 50.2093 135.047 50.6799 135.047C51.1704 135.047 51.5798 134.918 51.9079 134.659C52.2393 134.398 52.4879 134.046 52.6536 133.605C52.8227 133.161 52.9072 132.668 52.9072 132.124C52.9072 131.587 52.8243 131.103 52.6586 130.672C52.4962 130.238 52.2493 129.895 51.9178 129.643C51.5897 129.388 51.1771 129.26 50.6799 129.26C50.2026 129.26 49.8016 129.381 49.4768 129.623C49.152 129.862 48.9067 130.197 48.741 130.627C48.5753 131.055 48.4924 131.554 48.4924 132.124ZM58.1174 136.121C57.6335 136.121 57.1944 136.03 56.7999 135.848C56.4055 135.662 56.0923 135.395 55.8603 135.047C55.6283 134.696 55.5123 134.272 55.5123 133.775C55.5123 133.337 55.5985 132.982 55.7708 132.711C55.9432 132.435 56.1735 132.22 56.4619 132.064C56.7502 131.909 57.0684 131.793 57.4164 131.716C57.7677 131.637 58.1207 131.574 58.4754 131.527C58.9394 131.468 59.3156 131.423 59.6039 131.393C59.8956 131.36 60.1077 131.305 60.2403 131.229C60.3762 131.153 60.4441 131.02 60.4441 130.831V130.792C60.4441 130.301 60.3099 129.92 60.0414 129.648C59.7763 129.376 59.3736 129.24 58.8333 129.24C58.2732 129.24 57.834 129.363 57.5158 129.608C57.1977 129.854 56.9739 130.115 56.8447 130.394L55.731 129.996C55.9299 129.532 56.1951 129.171 56.5265 128.912C56.8613 128.65 57.2258 128.468 57.6203 128.365C58.018 128.259 58.4091 128.206 58.7935 128.206C59.0388 128.206 59.3205 128.236 59.6387 128.296C59.9602 128.352 60.2701 128.47 60.5684 128.649C60.87 128.828 61.1203 129.098 61.3191 129.459C61.518 129.82 61.6174 130.304 61.6174 130.911V135.942H60.4441V134.908H60.3845C60.3049 135.074 60.1723 135.251 59.9867 135.44C59.8011 135.629 59.5542 135.79 59.246 135.922C58.9377 136.055 58.5615 136.121 58.1174 136.121ZM58.2964 135.067C58.7604 135.067 59.1515 134.976 59.4697 134.794C59.7912 134.611 60.0331 134.376 60.1955 134.088C60.3613 133.799 60.4441 133.496 60.4441 133.178V132.104C60.3944 132.164 60.285 132.218 60.116 132.268C59.9503 132.315 59.758 132.356 59.5393 132.392C59.3238 132.426 59.1134 132.455 58.9079 132.482C58.7057 132.505 58.5417 132.525 58.4157 132.542C58.1108 132.581 57.8257 132.646 57.5606 132.735C57.2988 132.822 57.0866 132.953 56.9242 133.128C56.7651 133.301 56.6856 133.536 56.6856 133.834C56.6856 134.242 56.8364 134.55 57.138 134.759C57.4429 134.964 57.8291 135.067 58.2964 135.067ZM63.7589 135.942V128.306H64.8924V129.459H64.972C65.1112 129.081 65.3631 128.775 65.7277 128.539C66.0923 128.304 66.5032 128.186 66.9606 128.186C67.0468 128.186 67.1545 128.188 67.2838 128.191C67.413 128.195 67.5108 128.2 67.5771 128.206V129.4C67.5373 129.39 67.4462 129.375 67.3037 129.355C67.1645 129.332 67.017 129.32 66.8612 129.32C66.49 129.32 66.1585 129.398 65.8669 129.554C65.5785 129.706 65.3498 129.918 65.1808 130.19C65.0151 130.458 64.9322 130.765 64.9322 131.11V135.942H63.7589ZM71.2151 136.121C70.7312 136.121 70.292 136.03 69.8976 135.848C69.5032 135.662 69.19 135.395 68.958 135.047C68.726 134.696 68.61 134.272 68.61 133.775C68.61 133.337 68.6961 132.982 68.8685 132.711C69.0408 132.435 69.2712 132.22 69.5595 132.064C69.8479 131.909 70.1661 131.793 70.5141 131.716C70.8654 131.637 71.2184 131.574 71.573 131.527C72.037 131.468 72.4132 131.423 72.7016 131.393C72.9932 131.36 73.2054 131.305 73.3379 131.229C73.4738 131.153 73.5418 131.02 73.5418 130.831V130.792C73.5418 130.301 73.4075 129.92 73.1391 129.648C72.8739 129.376 72.4712 129.24 71.931 129.24C71.3708 129.24 70.9317 129.363 70.6135 129.608C70.2953 129.854 70.0716 130.115 69.9423 130.394L68.8287 129.996C69.0276 129.532 69.2927 129.171 69.6242 128.912C69.9589 128.65 70.3235 128.468 70.7179 128.365C71.1156 128.259 71.5067 128.206 71.8912 128.206C72.1365 128.206 72.4182 128.236 72.7364 128.296C73.0579 128.352 73.3678 128.47 73.6661 128.649C73.9677 128.828 74.2179 129.098 74.4168 129.459C74.6156 129.82 74.7151 130.304 74.7151 130.911V135.942H73.5418V134.908H73.4821C73.4026 135.074 73.27 135.251 73.0844 135.44C72.8988 135.629 72.6519 135.79 72.3436 135.922C72.0354 136.055 71.6592 136.121 71.2151 136.121ZM71.394 135.067C71.8581 135.067 72.2492 134.976 72.5673 134.794C72.8888 134.611 73.1308 134.376 73.2932 134.088C73.4589 133.799 73.5418 133.496 73.5418 133.178V132.104C73.4921 132.164 73.3827 132.218 73.2136 132.268C73.0479 132.315 72.8557 132.356 72.6369 132.392C72.4215 132.426 72.211 132.455 72.0055 132.482C71.8034 132.505 71.6393 132.525 71.5134 132.542C71.2084 132.581 70.9234 132.646 70.6582 132.735C70.3964 132.822 70.1843 132.953 70.0219 133.128C69.8628 133.301 69.7832 133.536 69.7832 133.834C69.7832 134.242 69.9341 134.55 70.2357 134.759C70.5406 134.964 70.9267 135.067 71.394 135.067ZM80.7941 135.942V128.306H81.9276V129.459H82.0071C82.1464 129.081 82.3982 128.775 82.7628 128.539C83.1274 128.304 83.5384 128.186 83.9958 128.186C84.082 128.186 84.1897 128.188 84.3189 128.191C84.4482 128.195 84.546 128.2 84.6123 128.206V129.4C84.5725 129.39 84.4813 129.375 84.3388 129.355C84.1996 129.332 84.0521 129.32 83.8964 129.32C83.5251 129.32 83.1937 129.398 82.902 129.554C82.6137 129.706 82.385 129.918 82.216 130.19C82.0502 130.458 81.9674 130.765 81.9674 131.11V135.942H80.7941ZM88.9723 136.101C88.2366 136.101 87.6018 135.939 87.0682 135.614C86.5379 135.286 86.1286 134.828 85.8402 134.242C85.5552 133.652 85.4127 132.966 85.4127 132.184C85.4127 131.401 85.5552 130.712 85.8402 130.115C86.1286 129.516 86.5296 129.048 87.0434 128.713C87.5604 128.375 88.1636 128.206 88.853 128.206C89.2508 128.206 89.6435 128.273 90.0313 128.405C90.4191 128.538 90.7721 128.753 91.0902 129.051C91.4084 129.346 91.662 129.738 91.8509 130.225C92.0398 130.712 92.1343 131.312 92.1343 132.025V132.522H86.2479V131.507H90.9411C90.9411 131.077 90.8549 130.692 90.6826 130.354C90.5135 130.016 90.2716 129.749 89.9567 129.554C89.6452 129.358 89.2773 129.26 88.853 129.26C88.3857 129.26 87.9813 129.376 87.64 129.608C87.3019 129.837 87.0417 130.135 86.8594 130.503C86.6771 130.871 86.586 131.266 86.586 131.686V132.363C86.586 132.939 86.6854 133.428 86.8843 133.829C87.0865 134.227 87.3665 134.53 87.7245 134.739C88.0824 134.944 88.4984 135.047 88.9723 135.047C89.2806 135.047 89.559 135.004 89.8076 134.918C90.0595 134.828 90.2766 134.696 90.4589 134.52C90.6411 134.341 90.782 134.119 90.8814 133.854L92.015 134.172C91.8956 134.557 91.6951 134.895 91.4134 135.186C91.1317 135.475 90.7837 135.7 90.3694 135.863C89.9551 136.022 89.4894 136.101 88.9723 136.101ZM96.1662 136.121C95.6823 136.121 95.2432 136.03 94.8488 135.848C94.4544 135.662 94.1411 135.395 93.9091 135.047C93.6771 134.696 93.5611 134.272 93.5611 133.775C93.5611 133.337 93.6473 132.982 93.8196 132.711C93.992 132.435 94.2223 132.22 94.5107 132.064C94.7991 131.909 95.1172 131.793 95.4652 131.716C95.8166 131.637 96.1696 131.574 96.5242 131.527C96.9882 131.468 97.3644 131.423 97.6527 131.393C97.9444 131.36 98.1565 131.305 98.2891 131.229C98.425 131.153 98.4929 131.02 98.4929 130.831V130.792C98.4929 130.301 98.3587 129.92 98.0902 129.648C97.8251 129.376 97.4224 129.24 96.8821 129.24C96.322 129.24 95.8829 129.363 95.5647 129.608C95.2465 129.854 95.0228 130.115 94.8935 130.394L93.7799 129.996C93.9787 129.532 94.2439 129.171 94.5753 128.912C94.9101 128.65 95.2747 128.468 95.6691 128.365C96.0668 128.259 96.4579 128.206 96.8424 128.206C97.0876 128.206 97.3694 128.236 97.6875 128.296C98.009 128.352 98.3189 128.47 98.6172 128.649C98.9188 128.828 99.1691 129.098 99.3679 129.459C99.5668 129.82 99.6662 130.304 99.6662 130.911V135.942H98.4929V134.908H98.4333C98.3537 135.074 98.2212 135.251 98.0356 135.44C97.8499 135.629 97.603 135.79 97.2948 135.922C96.9866 136.055 96.6104 136.121 96.1662 136.121ZM96.3452 135.067C96.8092 135.067 97.2003 134.976 97.5185 134.794C97.84 134.611 98.082 134.376 98.2444 134.088C98.4101 133.799 98.4929 133.496 98.4929 133.178V132.104C98.4432 132.164 98.3339 132.218 98.1648 132.268C97.9991 132.315 97.8069 132.356 97.5881 132.392C97.3727 132.426 97.1622 132.455 96.9567 132.482C96.7545 132.505 96.5905 132.525 96.4645 132.542C96.1596 132.581 95.8746 132.646 95.6094 132.735C95.3476 132.822 95.1355 132.953 94.9731 133.128C94.814 133.301 94.7344 133.536 94.7344 133.834C94.7344 134.242 94.8852 134.55 95.1868 134.759C95.4918 134.964 95.8779 135.067 96.3452 135.067ZM102.981 125.76V135.942H101.808V125.76H102.981ZM105.13 135.942V128.306H106.303V135.942H105.13ZM105.727 127.033C105.498 127.033 105.301 126.955 105.135 126.799C104.973 126.644 104.891 126.456 104.891 126.238C104.891 126.019 104.973 125.832 105.135 125.676C105.301 125.52 105.498 125.442 105.727 125.442C105.955 125.442 106.151 125.52 106.313 125.676C106.479 125.832 106.562 126.019 106.562 126.238C106.562 126.456 106.479 126.644 106.313 126.799C106.151 126.955 105.955 127.033 105.727 127.033ZM108.234 135.942V135.047L112.569 129.479V129.4H108.373V128.306H114.08V129.24L109.864 134.769V134.848H114.219V135.942H108.234ZM118.274 136.121C117.79 136.121 117.351 136.03 116.956 135.848C116.562 135.662 116.249 135.395 116.017 135.047C115.785 134.696 115.669 134.272 115.669 133.775C115.669 133.337 115.755 132.982 115.927 132.711C116.099 132.435 116.33 132.22 116.618 132.064C116.906 131.909 117.225 131.793 117.573 131.716C117.924 131.637 118.277 131.574 118.632 131.527C119.096 131.468 119.472 131.423 119.76 131.393C120.052 131.36 120.264 131.305 120.397 131.229C120.532 131.153 120.6 131.02 120.6 130.831V130.792C120.6 130.301 120.466 129.92 120.198 129.648C119.933 129.376 119.53 129.24 118.99 129.24C118.429 129.24 117.99 129.363 117.672 129.608C117.354 129.854 117.13 130.115 117.001 130.394L115.887 129.996C116.086 129.532 116.351 129.171 116.683 128.912C117.018 128.65 117.382 128.468 117.777 128.365C118.174 128.259 118.565 128.206 118.95 128.206C119.195 128.206 119.477 128.236 119.795 128.296C120.116 128.352 120.426 128.47 120.725 128.649C121.026 128.828 121.277 129.098 121.475 129.459C121.674 129.82 121.774 130.304 121.774 130.911V135.942H120.6V134.908H120.541C120.461 135.074 120.329 135.251 120.143 135.44C119.957 135.629 119.71 135.79 119.402 135.922C119.094 136.055 118.718 136.121 118.274 136.121ZM118.453 135.067C118.917 135.067 119.308 134.976 119.626 134.794C119.947 134.611 120.189 134.376 120.352 134.088C120.518 133.799 120.6 133.496 120.6 133.178V132.104C120.551 132.164 120.441 132.218 120.272 132.268C120.107 132.315 119.914 132.356 119.696 132.392C119.48 132.426 119.27 132.455 119.064 132.482C118.862 132.505 118.698 132.525 118.572 132.542C118.267 132.581 117.982 132.646 117.717 132.735C117.455 132.822 117.243 132.953 117.08 133.128C116.921 133.301 116.842 133.536 116.842 133.834C116.842 134.242 116.993 134.55 117.294 134.759C117.599 134.964 117.985 135.067 118.453 135.067ZM123.915 135.942V128.306H125.049V129.459H125.128C125.267 129.081 125.519 128.775 125.884 128.539C126.249 128.304 126.659 128.186 127.117 128.186C127.203 128.186 127.311 128.188 127.44 128.191C127.569 128.195 127.667 128.2 127.733 128.206V129.4C127.694 129.39 127.602 129.375 127.46 129.355C127.321 129.332 127.173 129.32 127.017 129.32C126.646 129.32 126.315 129.398 126.023 129.554C125.735 129.706 125.506 129.918 125.337 130.19C125.171 130.458 125.088 130.765 125.088 131.11V135.942H123.915ZM136.164 136.101C135.475 136.101 134.87 135.937 134.349 135.609C133.832 135.281 133.428 134.822 133.136 134.232C132.848 133.642 132.704 132.953 132.704 132.164C132.704 131.368 132.848 130.674 133.136 130.081C133.428 129.487 133.832 129.027 134.349 128.699C134.87 128.37 135.475 128.206 136.164 128.206C136.853 128.206 137.457 128.37 137.974 128.699C138.494 129.027 138.898 129.487 139.187 130.081C139.478 130.674 139.624 131.368 139.624 132.164C139.624 132.953 139.478 133.642 139.187 134.232C138.898 134.822 138.494 135.281 137.974 135.609C137.457 135.937 136.853 136.101 136.164 136.101ZM136.164 135.047C136.688 135.047 137.118 134.913 137.457 134.645C137.795 134.376 138.045 134.023 138.207 133.586C138.37 133.148 138.451 132.674 138.451 132.164C138.451 131.653 138.37 131.178 138.207 130.737C138.045 130.296 137.795 129.94 137.457 129.668C137.118 129.396 136.688 129.26 136.164 129.26C135.64 129.26 135.209 129.396 134.871 129.668C134.533 129.94 134.283 130.296 134.121 130.737C133.958 131.178 133.877 131.653 133.877 132.164C133.877 132.674 133.958 133.148 134.121 133.586C134.283 134.023 134.533 134.376 134.871 134.645C135.209 134.913 135.64 135.047 136.164 135.047ZM148.753 128.306V129.3H144.637V128.306H148.753ZM145.87 135.942V127.252C145.87 126.814 145.972 126.45 146.178 126.158C146.383 125.866 146.65 125.648 146.978 125.502C147.307 125.356 147.653 125.283 148.017 125.283C148.306 125.283 148.541 125.306 148.723 125.353C148.906 125.399 149.042 125.442 149.131 125.482L148.793 126.496C148.733 126.476 148.65 126.451 148.544 126.422C148.442 126.392 148.306 126.377 148.137 126.377C147.749 126.377 147.469 126.475 147.297 126.67C147.128 126.866 147.043 127.152 147.043 127.53V135.942H145.87ZM150.398 135.942V128.306H151.531V129.459H151.611C151.75 129.081 152.002 128.775 152.366 128.539C152.731 128.304 153.142 128.186 153.599 128.186C153.685 128.186 153.793 128.188 153.922 128.191C154.052 128.195 154.149 128.2 154.216 128.206V129.4C154.176 129.39 154.085 129.375 153.942 129.355C153.803 129.332 153.656 129.32 153.5 129.32C153.129 129.32 152.797 129.398 152.506 129.554C152.217 129.706 151.989 129.918 151.819 130.19C151.654 130.458 151.571 130.765 151.571 131.11V135.942H150.398ZM158.576 136.101C157.84 136.101 157.205 135.939 156.672 135.614C156.141 135.286 155.732 134.828 155.444 134.242C155.159 133.652 155.016 132.966 155.016 132.184C155.016 131.401 155.159 130.712 155.444 130.115C155.732 129.516 156.133 129.048 156.647 128.713C157.164 128.375 157.767 128.206 158.457 128.206C158.854 128.206 159.247 128.273 159.635 128.405C160.023 128.538 160.376 128.753 160.694 129.051C161.012 129.346 161.265 129.738 161.454 130.225C161.643 130.712 161.738 131.312 161.738 132.025V132.522H155.851V131.507H160.545C160.545 131.077 160.458 130.692 160.286 130.354C160.117 130.016 159.875 129.749 159.56 129.554C159.249 129.358 158.881 129.26 158.457 129.26C157.989 129.26 157.585 129.376 157.243 129.608C156.905 129.837 156.645 130.135 156.463 130.503C156.281 130.871 156.189 131.266 156.189 131.686V132.363C156.189 132.939 156.289 133.428 156.488 133.829C156.69 134.227 156.97 134.53 157.328 134.739C157.686 134.944 158.102 135.047 158.576 135.047C158.884 135.047 159.163 135.004 159.411 134.918C159.663 134.828 159.88 134.696 160.062 134.52C160.245 134.341 160.386 134.119 160.485 133.854L161.618 134.172C161.499 134.557 161.299 134.895 161.017 135.186C160.735 135.475 160.387 135.7 159.973 135.863C159.559 136.022 159.093 136.101 158.576 136.101ZM166.844 128.306V129.3H162.886V128.306H166.844ZM164.04 126.476H165.213V133.755C165.213 134.086 165.261 134.335 165.357 134.5C165.457 134.663 165.582 134.772 165.735 134.828C165.891 134.882 166.055 134.908 166.227 134.908C166.356 134.908 166.462 134.901 166.545 134.888C166.628 134.872 166.694 134.858 166.744 134.848L166.983 135.902C166.903 135.932 166.792 135.962 166.65 135.992C166.507 136.025 166.327 136.042 166.108 136.042C165.776 136.042 165.452 135.97 165.133 135.828C164.819 135.685 164.557 135.468 164.348 135.176C164.142 134.885 164.04 134.517 164.04 134.073V126.476ZM171.728 136.101C170.992 136.101 170.358 135.939 169.824 135.614C169.294 135.286 168.884 134.828 168.596 134.242C168.311 133.652 168.169 132.966 168.169 132.184C168.169 131.401 168.311 130.712 168.596 130.115C168.884 129.516 169.285 129.048 169.799 128.713C170.316 128.375 170.919 128.206 171.609 128.206C172.007 128.206 172.399 128.273 172.787 128.405C173.175 128.538 173.528 128.753 173.846 129.051C174.164 129.346 174.418 129.738 174.607 130.225C174.796 130.712 174.89 131.312 174.89 132.025V132.522H169.004V131.507H173.697C173.697 131.077 173.611 130.692 173.438 130.354C173.269 130.016 173.027 129.749 172.713 129.554C172.401 129.358 172.033 129.26 171.609 129.26C171.142 129.26 170.737 129.376 170.396 129.608C170.058 129.837 169.798 130.135 169.615 130.503C169.433 130.871 169.342 131.266 169.342 131.686V132.363C169.342 132.939 169.441 133.428 169.64 133.829C169.842 134.227 170.122 134.53 170.48 134.739C170.838 134.944 171.254 135.047 171.728 135.047C172.036 135.047 172.315 135.004 172.563 134.918C172.815 134.828 173.032 134.696 173.215 134.52C173.397 134.341 173.538 134.119 173.637 133.854L174.771 134.172C174.652 134.557 174.451 134.895 174.169 135.186C173.888 135.475 173.54 135.7 173.125 135.863C172.711 136.022 172.245 136.101 171.728 136.101ZM177.53 136.022C177.285 136.022 177.074 135.934 176.899 135.758C176.723 135.583 176.635 135.372 176.635 135.127C176.635 134.882 176.723 134.671 176.899 134.495C177.074 134.32 177.285 134.232 177.53 134.232C177.775 134.232 177.986 134.32 178.161 134.495C178.337 134.671 178.425 134.882 178.425 135.127C178.425 135.289 178.384 135.438 178.301 135.574C178.221 135.71 178.113 135.819 177.977 135.902C177.845 135.982 177.696 136.022 177.53 136.022Z" fill="black"/>
<defs>
<clipPath id="clip0_1_2">
<rect width="36.2075" height="30.6511" fill="white" transform="translate(166.957 602.146)"/>
</clipPath>
</defs>
</svg>
